<svg xmlns="http://www.w3.org/2000/svg" xmlns:xlink="http://www.w3.org/1999/xlink" version="1.1" x="0" y="0" width="547.36" height="547.36" viewBox="0 0 547.36 547.36" enable-background="new 0 0 547.364 547.364" xml:space="preserve">
    <polygon class="fill" fill="#FFFFFF" points="476.42 296.92 475.15 293.53 474.78 293.5 477.1 289.85 483.15 291.72 489.29 292.25 495.43 292.84 501.75 291.4 507.79 293.26 513.97 293.42 520.09 294.24 526.37 293.35 532.52 293.86 538.53 296.07 544.83 294.72 546.72 300.53 547.36 300.59 543.82 305.16 537.69 304.38 531.5 304.2 525.58 301.62 519.46 300.84 513.21 301.24 507 301.23 500.85 300.71 494.73 299.78 488.57 299.37 482.62 297.15 "/>
    <path class="stroke" fill="#FFFFFF" d="M478.47 330.17c-0.31-1.68-0.59-3.33-0.94-4.99l-6.4 0.6 -5.57-2.51 -5.61-2.44 -4.19-0.61c-1.8 1.48-3.2 3.25-3.59 5.17l0.3 0.01 5.39 3.05 5.98 1.06 5.46 2.8 6.5-0.68 2.75-1.43L478.47 330.17z"/>
    <path class="stroke" fill="#FFFFFF" d="M486.97 336.08c-0.36-1.3-0.75-2.6-1.15-3.88l-0.01-0.01 2.97-2.66 4.55 0.99 4.5 1.2 1.06 4.09 0.05 0.01c-1 1.02-2.02 2.01-3.06 2.98l-4.44-1.41L486.97 336.08z"/>
    <path class="stroke" fill="#FFFFFF" d="M502.52 381.46l-0.69-3.06 -4.93-3.36 -5.61-1.89 -4.39-4.58 -5.46-2.17 -5.08-3.05 -6.55 0.22 -5.43-2.25 -4.79-3.66 -4.71-3.88 -6.13-0.69 -4.86-3.54 -5.69-1.66 -5.5-2.13 -5.73-1.63 -4.65-3.96 -5.25-2.68 -4.65-1.63c-1.34 1.5-2.25 3.51-2.72 5.7l4.78 1.43 5.66 1.84 4.51 4.17 5.82 1.48 5.1 2.96 5.61 1.91 4.93 3.3 5.7 1.73 5.23 2.71 5.43 2.29 5.08 2.99 4.9 3.35 5.03 3.09 5.62 1.92 5.66 1.81 5.41 2.35 4.21 4.76c1.75-1.19 3.51-2.4 5.22-3.65L502.52 381.46z"/>
    <polygon class="fill" fill="#FFFFFF" points="422.23 381.83 422.33 377.71 422.96 378.14 425.83 376.73 430.34 380.64 435.37 383.79 441.05 385.97 445.15 390.5 449.87 394.11 455.38 396.56 459.59 400.92 464.95 403.6 469.86 406.93 474.76 410.28 479.5 413.85 484.51 417.06 484.27 421.12 484.16 421.05 480.18 423.21 475.76 419.2 471.19 415.39 465.74 412.79 461.67 408.32 456.83 404.88 451.29 402.42 447.11 398.06 441.26 396.03 436.53 392.45 432.26 388.2 427.19 385.14 "/>
    <path class="stroke" fill="#FFFFFF" d="M419.95 376.04l-0.23-0.16 0.01-3.23 -5.5-1.96c-0.98 1.49-0.91 1.49-1.85 2.99l4.14 3.54L419.95 376.04z"/>
    <polygon class="fill" fill="#FFFFFF" points="405.27 404.92 405.25 401.11 405.12 400.98 408.96 401.11 415.31 407.54 422.11 413.49 428.89 419.47 428.58 423.71 428.48 423.61 424.41 424.1 418.08 417.66 411.71 411.26 "/>
    <polygon class="fill" fill="#FFFFFF" points="400.58 433.48 402.08 430.2 401.84 429.9 406.06 428.97 409.01 434.57 412.98 439.29 416.9 444.05 422.39 447.5 425.33 453.08 429.58 457.58 433.34 462.49 438.4 466.29 442.38 471.01 445.07 476.81 450.47 480.33 447.71 485.77 448.12 486.27 442.38 486.99 438.61 482.11 434.36 477.61 432 471.6 428.22 466.71 423.52 462.57 419.15 458.16 415.17 453.46 411.5 448.47 407.44 443.82 404.8 438.03 "/>
    <path class="stroke" fill="#FFFFFF" d="M398.62 421.31l-3.71-4.78 -1.41-1.82c-2.09 0.57-4.08 1.6-5.3 3.1l2.05 2.56 3.63 4.83 3.88-0.27 -0.05-0.05L398.62 421.31z"/>
    <path class="stroke" fill="#FFFFFF" d="M381.41 454.22l-4.95-4.09 -2.17-5.73 -2.25-5.69 -3.63-4.86 -0.35-0.74c-2.35 0.23-4.38 0.89-6.02 2.01l1.49 1.53 1.66 5.99 3.48 4.96 1.9 5.84 5.07 4.1 2.96 0.93 -0.04-0.06C379.55 457.04 380.48 455.62 381.41 454.22z"/>
    <polygon class="fill" fill="#FFFFFF" points="380.4 468.59 382.32 465.03 382.32 465.03 386.31 465.23 388.82 469.15 391.16 473.19 389.03 476.82 389.05 476.87 384.79 476.81 382.65 472.67 "/>
    <path class="stroke" fill="#FFFFFF" d="M359.91 503.17l-2.62-5.3 0.13-6.34 -2.32-5.4 -1.45-5.75 -4.79-4.47 -2.25-5.44 -0.8-5.98 -0.6-6.06 -3.85-4.84 -0.93-5.93 -2.85-5.2 -2.37-5.36c-0.89 0.2-1.85 0.58-2.88 1.09 -0.73 0.36-1.32 0.86-1.83 1.46l1.31 4.91 2.62 5.32 1.17 5.82 2.8 5.25 1.78 5.61 2.23 5.45 1.49 5.71 1.1 5.84 1.37 5.74 2.62 5.33 2.72 5.28 2.16 5.48 -0.39 6.35 6.29 1.1 -0.41-1.12 1.69-2.66L359.91 503.17z"/>
    <polygon class="fill" fill="#FFFFFF" points="302.23 455.2 305.23 452.36 305.36 453.12 308.4 454.13 308.82 460.09 310.15 465.88 312.63 471.44 312.31 477.55 313.09 483.44 315.26 489.06 315.16 495.12 317.06 500.8 318.17 506.63 319.26 512.46 320.09 518.35 321.35 524.15 318.31 526.87 318.28 526.73 313.92 525.45 313.64 519.49 313.1 513.56 311.1 507.87 311.38 501.82 310.4 495.96 308.21 490.31 308.36 484.28 305.64 478.71 304.84 472.82 304.82 466.82 303.4 461.04 "/>
    <polygon class="fill" fill="#FFFFFF" points="297.32 418.23 298.75 415.47 298.77 415.54 301.58 417.47 302.7 423.36 303.68 429.26 304.56 435.2 306.19 440.99 306.98 446.94 304.68 449.24 304.72 449.51 301.48 447.9 301.01 441.91 300 436 298.87 430.12 298 424.19 "/>
    <polygon class="fill" fill="#FFFFFF" points="273.93 459.53 276.6 456.82 276.6 456.63 279.22 459.44 279.17 468.49 279.76 477.5 280.33 486.51 277.11 489.29 277.11 489.15 273.9 486.63 273.98 477.59 274 468.56 "/>
    <polygon class="fill" fill="#FFFFFF" points="250.45 476.42 253.83 475.16 253.87 474.77 257.51 477.11 255.65 483.14 255.12 489.29 254.53 495.43 255.97 501.74 254.11 507.78 253.95 513.97 253.12 520.09 254.03 526.36 253.5 532.51 251.3 538.53 252.64 544.84 246.84 546.72 246.78 547.36 242.21 543.81 242.99 537.69 243.17 531.5 245.74 525.58 246.53 519.46 246.11 513.2 246.14 506.99 246.65 500.85 247.58 494.73 247.99 488.57 250.22 482.62 "/>
    <path class="stroke" fill="#FFFFFF" d="M232.15 415.42l-0.66 2.11 -2.07 5.67 -1.68 5.8 -1.95 5.71 0.19 6.36 -3.92 5.13 -0.1 6.27 -3.06 5.39 -1.05 5.98 -2.8 5.47 0.68 6.5 1.44 2.74 0.02-0.08c1.68-0.31 3.33-0.58 4.99-0.94l-0.59-6.38 2.51-5.58 2.44-5.62 0.88-5.99 2.05-5.71 0.31-6.15 2.19-5.67 1.81-5.76 1.75-5.8 1.37-5.87 0-3.08C234.95 414.76 233.45 414.78 232.15 415.42z"/>
    <path class="stroke" fill="#FFFFFF" d="M211.29 486.96c1.31-0.36 2.6-0.76 3.89-1.15v-0.01l2.68 2.98 -1 4.55 -1.2 4.5 -4.08 1.05 -0.01 0.06c-1.01-1.01-2.01-2.02-2.98-3.06l1.42-4.44L211.29 486.96z"/>
    <path class="stroke" fill="#FFFFFF" d="M196.53 431.11l-2.59 4.45 -1.91 5.63 -3.29 4.93 -1.74 5.71 -2.71 5.22 -2.29 5.43 -2.98 5.08 -3.36 4.91 -3.09 5.02 -1.92 5.62 -1.81 5.65 -2.34 5.41 -4.76 4.21c1.19 1.75 2.4 3.51 3.66 5.22l0.51-1.08 3.07-0.68 3.35-4.93 1.89-5.61 4.58-4.39 2.19-5.46 3.04-5.08 -0.22-6.55 2.26-5.43 3.67-4.78 3.88-4.72 0.69-6.13 3.54-4.86 1.66-5.68 2.13-5.49 0.3-1.05C200.14 430.37 198.42 430.43 196.53 431.11z"/>
    <polygon class="fill" fill="#FFFFFF" points="165.53 422.22 169.66 422.32 169.21 422.96 170.64 425.82 166.72 430.33 163.57 435.37 161.39 441.05 156.86 445.15 153.24 449.86 150.8 455.39 146.45 459.59 143.78 464.95 140.44 469.86 137.08 474.76 133.51 479.51 130.3 484.51 126.24 484.28 126.32 484.15 124.16 480.18 128.17 475.76 131.97 471.19 134.58 465.74 139.05 461.67 142.49 456.82 144.94 451.28 149.31 447.12 151.33 441.26 154.92 436.53 159.16 432.27 162.23 427.18 "/>
    <polygon class="fill" fill="#FFFFFF" points="142.45 405.28 146.25 405.25 146.39 405.11 146.25 408.96 139.82 415.31 133.87 422.11 127.9 428.89 123.66 428.57 123.75 428.48 123.25 424.41 129.71 418.08 136.1 411.71 "/>
    <polygon class="fill" fill="#FFFFFF" points="113.88 400.58 117.16 402.09 117.47 401.84 118.4 406.06 112.8 409.01 108.08 412.99 103.32 416.91 99.87 422.39 94.28 425.34 89.79 429.59 84.88 433.34 81.07 438.4 76.36 442.38 70.55 445.07 67.04 450.47 61.6 447.71 61.09 448.12 60.38 442.39 65.26 438.61 69.76 434.36 75.77 432 80.66 428.22 84.8 423.51 89.21 419.15 93.92 415.17 98.9 411.51 103.55 407.43 109.35 404.8 "/>
    <path class="stroke" fill="#FFFFFF" d="M132.54 350.38l-1.18 0.65 -5.41 2.67 -4.33 4.61 -6.41 0.88 -4.49 4.35 -5.99 1.66 -4.96 3.49 -5.84 1.88 -4.1 5.08 -0.93 2.95 0.06-0.04c1.38 0.98 2.8 1.91 4.19 2.85l4.1-4.94 5.73-2.18 5.69-2.24 4.86-3.63 5.49-2.58 4.56-4.13 5.56-2.47 5.35-2.79 2.76-1.48C136.19 352 134.62 350.82 132.54 350.38z"/>
    <polygon class="fill" fill="#FFFFFF" points="78.77 380.4 82.33 382.32 82.34 382.32 82.14 386.3 78.21 388.82 74.18 391.16 70.54 389.03 70.5 389.05 70.56 384.79 74.69 382.65 "/>
    <polygon class="fill" fill="#FFFFFF" points="136.05 319.87 138.39 322.37 138.68 322.27 138.05 325.42 132.5 327.4 127.19 329.96 121.59 331.78 115.49 332.28 110.3 335.17 104.92 337.56 99.71 340.41 93.78 341.35 88.95 345.21 82.89 345.8 76.89 346.6 71.46 348.86 66.99 353.64 61.24 355.09 55.84 357.41 49.5 357.28 44.2 359.91 38.33 361.02 35.68 359.34 34.55 359.75 35.65 353.47 42 353.85 47.48 351.68 52.75 348.96 58.08 346.34 63.82 344.97 69.67 343.87 75.38 342.38 80.82 340.16 86.44 338.38 91.68 335.57 97.5 334.41 102.82 331.79 108.52 330.28 113.69 327.2 119.82 326.95 125.11 324.26 130.3 321.44 "/>
    <polygon class="fill" fill="#FFFFFF" points="92.15 302.23 95.01 305.23 94.25 305.36 93.23 308.39 87.27 308.82 81.48 310.14 75.92 312.63 69.82 312.31 63.93 313.09 58.3 315.26 52.24 315.16 46.56 317.06 40.74 318.16 34.91 319.26 29.02 320.09 23.21 321.36 20.49 318.3 20.63 318.27 21.92 313.92 27.88 313.64 33.81 313.1 39.5 311.1 45.55 311.38 51.4 310.4 57.06 308.21 63.09 308.36 68.66 305.64 74.54 304.83 80.55 304.82 86.32 303.4 "/>
    <polygon class="fill" fill="#FFFFFF" points="87.83 273.93 90.55 276.6 90.74 276.59 87.92 279.22 78.87 279.16 69.86 279.76 60.84 280.33 58.07 277.11 58.22 277.11 60.74 273.9 69.77 273.98 78.8 274 "/>
    <polygon class="fill" fill="#FFFFFF" points="169.89 274.22 172.24 275.32 172.26 275.32 169.94 276.82 162.13 277.04 154.31 276.97 146.52 277.29 138.72 277.93 130.91 278.09 123.1 278.14 115.3 278.51 107.5 279.14 99.66 278.49 96.8 276.5 97.48 276.49 99.59 273.81 107.41 274.37 115.23 274.52 123.02 273.85 130.83 273.68 138.63 273.73 146.45 273.95 154.26 273.87 162.07 274.01 "/>
    <polygon class="fill" fill="#FFFFFF" points="70.95 250.45 72.21 253.83 72.59 253.87 70.26 257.52 64.23 255.65 58.08 255.12 51.93 254.53 45.61 255.97 39.58 254.11 33.4 253.95 27.28 253.13 21 254.02 14.85 253.5 8.85 251.29 2.53 252.63 0.64 246.84 0 246.77 3.55 242.21 9.67 242.99 15.87 243.17 21.78 245.74 27.9 246.52 34.16 246.12 40.38 246.14 46.52 246.65 52.63 247.58 58.8 247.99 64.76 250.22 "/>
    <polygon class="fill" fill="#FFFFFF" points="129.46 257.39 131.79 259.64 131.57 259.63 129.06 261.57 123.03 261.31 117.04 260.5 111.02 260.03 105 259.72 98.94 259.82 92.94 259.16 86.94 258.41 80.95 257.66 79.06 254.5 78.99 254.49 81.55 251.56 87.53 252.41 93.53 253.06 99.49 253.99 105.55 254.05 111.5 255.15 117.46 256.09 123.54 256.14 "/>
    <path class="stroke" fill="#FFFFFF" d="M164.65 241.45c0.7 0.92 1.42 1.82 2.16 2.71l-0.13-0.04 -2.9 0.44 -6.13-0.42 -5.75-1.91 -5.78-1.77 -6.02-0.77 -5.51-2.79 -6.23-0.01 -5.88-1.37 -5.79-1.75 -5.76-1.8 -5.67-2.19 -6.15-0.3 -5.71-2.06 -5.99-0.86 -5.62-2.44 -5.57-2.52 -6.39 0.6c-0.35-1.66-0.64-3.31-0.94-4.99l-0.07-0.02 2.74-1.43 6.5-0.69 5.46 2.8 5.98 1.06 5.39 3.05 6.26 0.1 5.13 3.92 6.36-0.19 5.71 1.94 5.79 1.68 5.68 2.07 5.77 1.8 5.5 2.62 5.89 1.39 6.05 0.83 5.62 2.32L164.65 241.45z"/>
    <path class="stroke" fill="#FFFFFF" d="M60.4 211.29c0.36 1.31 0.75 2.6 1.16 3.89l0 0 -2.97 2.68 -4.55-1 -4.5-1.2 -1.06-4.08 -0.05-0.02c1.01-1.01 2.02-1.99 3.06-2.97l4.44 1.41L60.4 211.29z"/>
    <polygon class="fill" fill="#FFFFFF" points="189.49 249.02 191.11 250.85 191.01 250.83 188.79 251.53 183.08 250.09 177.39 248.65 171.7 247.16 170.04 245.05 170.15 245.08 172.56 244.05 178.2 245.73 183.83 247.42 "/>
    <path class="stroke" fill="#FFFFFF" d="M143.7 209.04c-0.05 1.15-0.1 2.27-0.12 3.41l0.29 0.14 -2.69 1.78 -5.31-2.53 -5.58-1.95 -5.24-2.68 -4.65-3.97 -5.73-1.62 -5.49-2.13 -5.7-1.65 -4.86-3.54 -6.13-0.69 -4.71-3.88 -4.79-3.66 -5.43-2.25 -6.55 0.22 -5.08-3.04 -5.46-2.19 -4.39-4.57 -5.61-1.9 -4.93-3.36 -0.68-3.06 -1.08-0.52c1.72-1.25 3.48-2.46 5.22-3.65l4.21 4.76 5.41 2.35 5.66 1.81 5.62 1.92 5.04 3.1 4.9 3.35 5.08 2.99 5.43 2.29 5.22 2.71 5.7 1.74 4.93 3.28 5.62 1.91 5.1 2.96 5.83 1.49 4.5 4.16 5.66 1.84 5.65 1.69L143.7 209.04z"/>
    <path class="stroke" fill="#FFFFFF" d="M171.72 223.73l1.55 2.72 -0.09-0.04 -2.98 0.52 -4.99-2.11 -4.86-2.35 -4.92-2.24 -4.92-2.25 -1.46-2.96 0.01 0.01c1.1-0.35 2.2-0.68 3.32-0.98l4.73 2.64 4.92 2.23 4.82 2.46L171.72 223.73z"/>
    <polygon class="fill" fill="#FFFFFF" points="125.14 165.53 125.03 169.66 124.41 169.22 121.54 170.64 117.04 166.72 112 163.57 106.31 161.39 102.22 156.86 97.5 153.25 91.98 150.8 87.77 146.44 82.41 143.78 77.5 140.44 72.61 137.08 67.86 133.51 62.86 130.3 63.1 126.24 63.21 126.32 67.19 124.16 71.61 128.17 76.18 131.97 81.62 134.58 85.71 139.05 90.53 142.49 96.08 144.95 100.25 149.31 106.11 151.34 110.84 154.92 115.1 159.15 120.19 162.23 "/>
    <polygon class="fill" fill="#FFFFFF" points="154.77 188.2 155.71 191.16 155.65 191.11 152.28 191.74 147.33 188.37 142.46 184.89 137.64 181.33 132.4 178.38 127.63 174.72 127.64 171.49 127.41 171.33 130.84 170.17 135.41 174.07 140.31 177.52 145.27 180.88 150.07 184.45 "/>
    <polygon class="fill" fill="#FFFFFF" points="190.89 213.8 191.47 216.23 191.89 216.51 189.1 216.32 184.08 213.26 179.42 209.65 174.41 206.58 169.65 203.12 164.73 199.91 159.89 196.56 159.09 193.53 159.29 193.67 162.21 193.26 166.93 196.76 171.72 200.17 176.59 203.48 181.19 207.14 186.1 210.38 "/>
    <polygon class="fill" fill="#FFFFFF" points="142.09 142.45 142.13 146.26 142.25 146.39 138.4 146.26 132.05 139.82 125.25 133.88 118.48 127.9 118.79 123.66 118.89 123.75 122.96 123.26 129.28 129.71 135.65 136.11 "/>
    <path class="stroke" fill="#FFFFFF" d="M167.04 167.26l-5.99-5.03 -5.42-5.64 -5.13-5.92 -3.4 0.41 -0.48-0.47 0.61 3.43 5.08 6.01 5.97 5.06 5.78 5.25 1.36 1.34c1.02-1.19 1.68-2.57 1.84-4.24L167.04 167.26z"/>
    <polygon class="fill" fill="#FFFFFF" points="146.78 113.89 145.28 117.17 145.52 117.46 141.3 118.4 138.35 112.8 134.38 108.08 130.47 103.31 124.98 99.87 122.03 94.28 117.78 89.79 114.03 84.88 108.96 81.07 104.99 76.36 102.3 70.55 96.89 67.03 99.65 61.59 99.24 61.09 104.98 60.37 108.75 65.26 113.01 69.76 115.37 75.77 119.15 80.66 123.85 84.8 128.22 89.21 132.2 93.92 135.86 98.9 139.92 103.55 142.57 109.34 "/>
    <path class="stroke" fill="#FFFFFF" d="M168.68 140.92l-4.24-4.33 -3.55-4.88 -3.78-4.71 -3.63-4.82 -3.88 0.26 0.05 0.06 -0.9 3.57 3.71 4.78 3.71 4.77 3.78 4.71 4.35 4.22 2.66 2.95c1.56-0.78 3.11-1.59 4.72-2.23L168.68 140.92z"/>
    <path class="stroke" fill="#FFFFFF" d="M206.66 153.24l-2.04-5.77 -2.81-5.34 -2.55-5.48 -2.92-5.28 -2.66-5.42 -4.62-4.33 -0.88-6.41 -4.35-4.49 -1.66-5.99 -3.48-4.96 -1.89-5.84 -5.07-4.1 -2.96-0.94 0.04 0.07c-0.98 1.38-1.91 2.8-2.84 4.2l4.93 4.09 2.17 5.73 2.25 5.68 3.63 4.87 2.59 5.48 4.13 4.58 2.48 5.55 2.8 5.35 2.85 5.33 3.2 5.13 4.4 4.41 1.92 5.86 1.37 1.78c1.06-0.63 2.12-1.25 3.23-1.74L206.66 153.24z"/>
    <polygon class="fill" fill="#FFFFFF" points="166.96 78.78 165.05 82.34 165.05 82.34 161.06 82.14 158.54 78.22 156.21 74.18 158.34 70.54 158.31 70.49 162.57 70.55 164.72 74.69 "/>
    <polygon class="fill" fill="#FFFFFF" points="226.49 130.05 224 132.39 224.1 132.69 220.94 132.05 218.97 126.51 216.41 121.19 214.59 115.59 214.09 109.49 211.19 104.3 208.81 98.91 205.95 93.71 205.01 87.78 201.16 82.95 200.57 76.89 199.77 70.9 197.51 65.46 192.73 60.99 191.28 55.25 188.95 49.84 189.08 43.5 186.46 38.19 185.34 32.33 187.03 29.68 186.62 28.55 192.91 29.66 192.52 36 194.68 41.48 197.41 46.76 200.03 52.09 201.39 57.82 202.49 63.67 203.98 69.38 206.21 74.83 207.98 80.44 210.79 85.68 211.96 91.51 214.58 96.82 216.1 102.53 219.17 107.69 219.42 113.83 222.12 119.11 224.92 124.3 "/>
    <polygon class="fill" fill="#FFFFFF" points="235.93 160.24 235.11 163.26 235.07 163.17 232.6 161.44 230.56 156.44 228.78 151.33 226.88 146.26 224.98 141.2 226.04 138.07 226.04 138.08 229.08 139.72 230.56 144.93 232.47 149.99 234.14 155.14 "/>
    <polygon class="fill" fill="#FFFFFF" points="245.13 92.16 242.14 95.01 242 94.25 238.98 93.23 238.56 87.27 237.22 81.49 234.74 75.93 235.05 69.82 234.28 63.93 232.1 58.3 232.21 52.25 230.31 46.56 229.2 40.74 228.11 34.91 227.28 29.01 226.01 23.21 229.07 20.5 229.09 20.63 233.44 21.92 233.73 27.88 234.27 33.81 236.27 39.5 235.99 45.55 236.97 51.4 239.15 57.06 239.01 63.09 241.72 68.66 242.53 74.54 242.54 80.55 243.96 86.32 "/>
    <polygon class="fill" fill="#FFFFFF" points="250.05 129.14 248.61 131.89 248.6 131.83 245.79 129.9 244.66 124 243.68 118.11 242.8 112.17 241.18 106.38 240.39 100.43 242.69 98.13 242.64 97.86 245.89 99.47 246.36 105.46 247.36 111.36 248.5 117.25 249.37 123.18 "/>
    <polygon class="fill" fill="#FFFFFF" points="257.46 172.78 256.16 174.9 256.25 175.4 254.42 173.31 253.04 167.59 252.29 161.75 250.93 156.03 250.01 150.22 248.81 144.46 247.75 138.68 249.32 135.96 249.37 136.2 251.72 137.98 252.57 143.8 253.55 149.59 254.65 155.37 255.31 161.22 256.5 166.98 "/>
    <polygon class="fill" fill="#FFFFFF" points="273.44 87.84 270.76 90.55 270.77 90.73 268.14 87.92 268.2 78.87 267.6 69.87 267.05 60.85 270.25 58.08 270.26 58.21 273.47 60.74 273.39 69.78 273.37 78.8 "/>
    <path class="stroke" fill="#FFFFFF" d="M273.64 138.64l0.05-7.81 -0.17-7.81 -0.67-7.8 0.15-7.81 0.56-7.82 -2.68-2.11 -0.01-0.68 -2 2.85 -0.64 7.85 0.64 7.8 0.36 7.8 0.05 7.81 0.17 7.81 0.37 4.57c1.22 0.16 2.46 0.27 3.69 0.28L273.64 138.64z"/>
    <polygon class="fill" fill="#FFFFFF" points="296.91 70.96 293.54 72.21 293.5 72.59 289.85 70.26 291.72 64.23 292.25 58.08 292.84 51.94 291.4 45.62 293.26 39.58 293.42 33.41 294.24 27.28 293.35 21 293.86 14.86 296.07 8.85 294.73 2.53 300.53 0.65 300.58 0 305.16 3.55 304.38 9.67 304.21 15.87 301.62 21.78 300.84 27.91 301.24 34.16 301.23 40.37 300.71 46.52 299.78 52.63 299.37 58.8 297.14 64.75 "/>
    <polygon class="fill" fill="#FFFFFF" points="289.97 129.46 287.72 131.8 287.74 131.57 285.8 129.05 286.05 123.02 286.86 117.03 287.33 111.02 287.64 105 287.54 98.94 288.21 92.93 288.96 86.95 289.71 80.95 292.87 79.06 292.88 78.99 295.81 81.55 294.96 87.53 294.31 93.53 293.37 99.49 293.31 105.55 292.21 111.51 291.28 117.46 291.24 123.54 "/>
    <path class="stroke" fill="#FFFFFF" d="M331.62 71.56l-1.43-2.74 -0.02 0.07c-1.67 0.31-3.33 0.59-4.98 0.94l0.59 6.39 -2.51 5.58 -2.43 5.62 -0.88 6.01 -2.05 5.71 -0.31 6.15 -2.18 5.67 -1.81 5.76 -1.75 5.79 -1.37 5.88 -0.01 6.23 -2.79 5.51 -0.78 6.02 -1.76 5.77 -0.59 1.76c0.94 1.32 2.02 2.36 3.36 2.58l1.32-3.21 0.84-6.05 1.39-5.89 2.64-5.5 1.79-5.76 2.07-5.68 1.69-5.81 1.95-5.71 -0.19-6.35 3.91-5.13 0.1-6.27 3.06-5.39 1.05-5.98 2.8-5.47L331.62 71.56z"/>
    <path class="stroke" fill="#FFFFFF" d="M336.08 60.4c-1.3 0.36-2.6 0.76-3.88 1.16l0 0 -2.68-2.97 1-4.55 1.2-4.5 4.09-1.05 0.02-0.05c1.01 1 2 2.02 2.97 3.06l-1.41 4.45L336.08 60.4z"/>
    <path class="stroke" fill="#FFFFFF" d="M381.97 43.78l-0.51 1.08 -3.06 0.68 -3.36 4.94 -1.89 5.6 -4.58 4.39 -2.19 5.46 -3.04 5.09 0.22 6.55 -2.26 5.44 -3.66 4.78 -3.88 4.72 -0.69 6.13 -3.54 4.87 -1.66 5.69 -2.13 5.49 -1.63 5.74 -3.96 4.65 -2.69 5.24 -1.95 5.57 -2.53 5.31 1.79 2.69 0.13-0.29c1.14 0.02 2.27 0.07 3.41 0.13l2.96-5.18 1.69-5.65 1.84-5.65 4.16-4.5 1.49-5.83 2.97-5.09 1.91-5.62 3.3-4.93 1.73-5.7 2.71-5.23 2.29-5.42 2.98-5.08 3.36-4.9 3.09-5.04 1.92-5.62 1.81-5.66 2.34-5.4 4.76-4.21C384.44 47.25 383.23 45.49 381.97 43.78z"/>
    <polygon class="fill" fill="#FFFFFF" points="381.83 125.14 377.71 125.04 378.15 124.41 376.73 121.54 380.64 117.03 383.79 112 385.97 106.31 390.5 102.22 394.12 97.5 396.56 91.98 400.91 87.78 403.59 82.41 406.92 77.5 410.28 72.61 413.85 67.86 417.06 62.86 421.12 63.09 421.05 63.21 423.21 67.19 419.2 71.61 415.39 76.19 412.79 81.62 408.32 85.71 404.88 90.53 402.42 96.08 398.05 100.25 396.03 106.11 392.45 110.84 388.21 115.1 385.14 120.19 "/>
    <path class="stroke" fill="#FFFFFF" d="M376.04 127.41l-0.15 0.23 -3.25-0.01 -3.64 4.77 -2.95 5.25 -3.57 4.81 -3.48 4.87 -0.03 0.04c1.35 1.02 2.87 1.71 4.53 1.92l2.99-4.02 3.36-4.97 3.46-4.89 3.91-4.56L376.04 127.41z"/>
    <polygon class="fill" fill="#FFFFFF" points="404.92 142.09 401.11 142.12 400.99 142.26 401.1 138.4 407.54 132.05 413.49 125.26 419.47 118.48 423.71 118.79 423.62 118.89 424.1 122.96 417.66 129.28 411.26 135.66 "/>
    <path class="stroke" fill="#FFFFFF" d="M390.78 155.63l5.92-5.14 -0.41-3.4 0.47-0.48 -3.43 0.61 -5.99 5.08 -5.07 5.97 -0.71 0.78c0.78 1.07 1.68 2.13 2.67 3.08l0.92-1.1L390.78 155.63z"/>
    <polygon class="fill" fill="#FFFFFF" points="433.48 146.78 430.2 145.28 429.9 145.53 428.97 141.31 434.57 138.36 439.28 134.38 444.05 130.46 447.5 124.99 453.08 122.03 457.57 117.78 462.49 114.03 466.29 108.96 471 104.99 476.81 102.3 480.33 96.89 485.77 99.66 486.27 99.24 486.99 104.98 482.12 108.75 477.6 113.01 471.59 115.37 466.71 119.15 462.57 123.84 458.17 128.22 453.45 132.2 448.47 135.86 443.82 139.93 438.02 142.57 "/>
    <polygon class="fill" fill="#FFFFFF" points="387.17 183.22 383.93 183.29 384.11 183.13 384.51 179.98 388.96 175.9 393.76 172.23 398.35 168.33 402.83 164.28 407.05 159.94 411.76 156.17 416.53 152.45 421.3 148.75 424.88 149.65 424.94 149.61 425.2 153.49 420.37 157.11 415.66 160.89 410.77 164.44 406.46 168.68 401.46 172.11 396.59 175.67 392.26 179.92 "/>
    <path class="stroke" fill="#FFFFFF" d="M373.58 219.4l-3.46-0.38 0.12-0.07 1.74-2.35 4.63-4.04 5.41-2.7 5.33-2.84 4.81-3.71 5.88-1.92 4.4-4.4 5.12-3.2 5.33-2.85 5.35-2.8 5.55-2.47 4.58-4.13 5.48-2.58 4.87-3.63 5.68-2.24 5.73-2.18 4.1-4.93c1.39 0.93 2.81 1.86 4.19 2.84l0.06-0.04 -0.94 2.95 -4.1 5.07 -5.84 1.9 -4.97 3.48 -5.98 1.66 -4.49 4.35 -6.41 0.88 -4.34 4.62 -5.41 2.67 -5.29 2.91 -5.49 2.56 -5.34 2.81 -5.77 2.04 -5.13 3.19 -4.86 3.68 -5.61 2.36L373.58 219.4z"/>
    <polygon class="fill" fill="#FFFFFF" points="468.59 166.97 465.03 165.05 465.03 165.05 465.23 161.06 469.15 158.55 473.19 156.21 476.83 158.34 476.87 158.31 476.81 162.57 472.67 164.72 "/>
    <polygon class="fill" fill="#FFFFFF" points="411.32 227.49 408.98 224.99 408.68 225.1 409.32 221.93 414.85 219.97 420.17 217.41 425.78 215.59 431.88 215.09 437.07 212.19 442.46 209.81 447.65 206.95 453.59 206.01 458.42 202.16 464.49 201.56 470.47 200.77 475.9 198.51 480.38 193.72 486.12 192.28 491.53 189.96 497.87 190.08 503.17 187.46 509.04 186.35 511.69 188.02 512.81 187.62 511.71 193.91 505.36 193.52 499.89 195.68 494.61 198.41 489.29 201.03 483.54 202.39 477.7 203.49 471.99 204.99 466.53 207.2 460.92 208.99 455.69 211.8 449.86 212.96 444.55 215.58 438.85 217.09 433.67 220.17 427.54 220.42 422.26 223.11 417.06 225.92 "/>
    <polygon class="fill" fill="#FFFFFF" points="455.21 245.13 452.37 242.14 453.13 242.01 454.13 238.98 460.1 238.55 465.88 237.23 471.45 234.74 477.55 235.05 483.44 234.28 489.06 232.1 495.12 232.21 500.8 230.3 506.63 229.19 512.46 228.11 518.35 227.28 524.15 226.01 526.87 229.06 526.74 229.09 525.45 233.44 519.49 233.73 513.55 234.26 507.87 236.27 501.82 235.99 495.97 236.97 490.31 239.15 484.27 239.01 478.71 241.72 472.83 242.54 466.81 242.54 461.05 243.96 "/>
    <polygon class="fill" fill="#FFFFFF" points="418.23 250.05 415.48 248.61 415.54 248.6 417.47 245.79 423.36 244.66 429.27 243.68 435.2 242.8 440.98 241.18 446.94 240.39 449.23 242.69 449.51 242.64 447.91 245.89 441.91 246.36 436 247.37 430.12 248.5 424.19 249.37 "/>
    <path class="stroke" fill="#FFFFFF" d="M408.69 247.75l-5.79 1.06 -5.75 1.2 -3.19 0.51c0.36 1.36 1.03 2.49 1.95 3.4l1.86-0.35 5.8-0.99 5.82-0.84 1.77-2.35 0.24-0.05L408.69 247.75z"/>
    <polygon class="fill" fill="#FFFFFF" points="459.53 273.43 456.82 270.76 456.64 270.77 459.45 268.14 468.49 268.2 477.5 267.6 486.52 267.04 489.29 270.26 489.16 270.26 486.63 273.47 477.6 273.39 468.56 273.36 "/>
    <path class="stroke" fill="#FFFFFF" d="M447.71 268.88l-7.84-0.65 -7.8 0.64 -7.81 0.36 -7.81 0.06 -7.81 0.16 -7.8 0.64 -2.52 0.1c-0.21 0.91-0.24 1.91-0.02 3 0.05 0.09 0.11 0.18 0.16 0.26l2.44-0.02 7.82 0.22 7.8 0.05 7.81-0.17 7.8-0.68 7.81 0.16 7.82 0.56 2.12-2.69 0.67-0.01L447.71 268.88z"/>
    <path class="stroke" fill="none" d="M373.69 193.52c-0.02-0.14 0.01-0.21 0.09-0.21C373.7 193.31 373.67 193.38 373.69 193.52z"/>
    <path class="stroke" fill="none" d="M390.01 185.38c-0.46-0.38-0.2-0.55 0.37-0.55l0 0C389.82 184.83 389.55 185 390.01 185.38z"/>
    <path class="stroke" fill="none" d="M368.56 158.24c-0.84 0-1.71 0.04-2.42 0.06C366.85 158.27 367.73 158.24 368.56 158.24L368.56 158.24z"/>
    <path class="stroke" fill="#BE9658" d="M365 241.4c-0.53 0.03-1.09 0.04-1.73 0.04 -0.35 0-0.72 0-1.11 0 -0.38 0-0.78 0-1.18 0 -3.08 0-4.29 0.23-4.77 0.4 -2.86 2.61-7.27 3.16-10.52 3.16 -2.05 0-7.66 0-10.1-3.58 -2.26 0.29-4.15 0.44-5.76 0.44 -1.05 0-2.03-0.08-2.93-0.22 -0.93 5.1-4.76 12.52-6.48 18.04 -1.85 5.97-7.09 16.05-2.37 17.49 2.18 0.67 3.65 1.29 4.66 1.29 1.18 0 1.75-0.84 2.13-3.45 0.72-4.83 1.54-7.2 1.54-7.2s-1.65 11.21 0.1 11.52c1.18 0.21 4.87 1.45 7.6 1.45 1.33 0 2.42-0.29 2.89-1.13 1.37-2.45 1.46-3.4 2.07-3.4 0.03 0 0.07 0 0.1 0.01 0.71 0.1 0.3 4.94 3.28 5.04 1.57 0.05 4.32 0.34 6.37 0.34 1.84 0 3.11-0.23 2.48-1.06 -1.33-1.75-6.51-6.07-6.82-15.54 -0.07-2.04 0.04-2.86 0.27-2.86 0.83 0 3.23 10.76 4.6 12.53 1.75 2.27 2.98 6.59 5.25 6.59 0.84 0 2.01 0.18 3 0.18 1.68 0 2.86-0.53 1.11-3.38 -2.77-4.52-3.8-7.61-4.73-11.73 -0.32-1.45-0.26-2.16 0.08-2.16 0.62 0 2.13 2.4 3.73 7 2.38 6.84 2.75 8.23 5.72 8.23 0.11 0 0.23 0 0.35-0.01 3.29-0.1 8.12-0.51 6.38-2.57 -1.52-1.78-4.19-5.19-3.07-5.19 0.17 0 0.43 0.08 0.8 0.26 2.78 1.34 2.27 5.35 4.84 5.35 0.2 0 0.42 0 0.65 0 2.67 0 6.7-0.34 2.34-9.16 -4.73-9.56-5.55-12.65-8.13-16.15C365.42 248.91 364.59 244.42 365 241.4z"/>
    <path class="stroke" fill="#BE9658" d="M329.59 222.16c2.88 0 6.54 0.25 11.5 0.66 6.52 0.54 11.62 0.8 15.6 0.8 5.59 0 7.08-0.55 7.11-0.56 1.13-0.5 2.27-0.75 3.39-0.75 0.63 0 1.24 0.08 1.82 0.24 0.45-1.55 0.82-3.11 0.9-4.45 -0.99-0.54-2-1.31-2.98-2.42 -0.35-0.14-0.89-0.32-1.28-0.46 -1.76-0.6-3.95-1.35-5.91-2.97 -0.11-0.08-0.27-0.17-0.46-0.26 -1.36 0.61-2.9 0.97-4.59 1.1 -0.69 3.12-0.69 6.79-1.56 6.79 -0.09 0-0.18-0.04-0.29-0.12 -0.95-0.71-2.46-6.77-2.88-6.9 -0.02-0.01-0.04-0.01-0.06-0.01 -0.91 0 0.21 6.76-0.85 6.76 -0.01 0-0.01 0-0.02 0 -0.82-0.07-1.28-4.01-1.76-7.47 -0.02-0.01-0.04-0.01-0.06-0.02 -1.73 1.9-4.14 3.82-7.7 3.82 -2.1 0-4.07-0.73-5.67-2.05 -0.13 1.81 0.47 3.81 0.47 4.01 0 0.5-0.05 0.71-0.16 0.71 -0.43 0-1.7-3.44-3.62-5.03 -0.46-0.03-0.91-0.08-1.35-0.16 -1.14 0.56-2.41 0.87-3.73 0.87 0 0 0 0 0 0 -0.39 0.27-0.79 0.51-1.21 0.73 0.35 1.3 1.03 3.53 1.96 7.31C327.34 222.18 328.49 222.16 329.59 222.16z"/>
    <path class="stroke" fill="#BE9658" d="M366.16 235.22c0.12-0.04 0.23-0.1 0.35-0.17 0 0 0 0 0-0.01 0.02-0.01 0.03-0.01 0.04-0.02 0.04-0.03 0.08-0.07 0.13-0.1 0.08-0.07 0.17-0.14 0.25-0.22 0.05-0.05 0.09-0.11 0.14-0.17 0.07-0.08 0.14-0.17 0.21-0.27 0.05-0.07 0.09-0.14 0.14-0.21 0.06-0.1 0.12-0.2 0.18-0.31 0.04-0.08 0.08-0.16 0.12-0.24 0.06-0.11 0.11-0.23 0.16-0.34 0.04-0.09 0.07-0.17 0.11-0.26 0.05-0.12 0.09-0.24 0.13-0.37 0.03-0.09 0.06-0.18 0.09-0.27 0.04-0.13 0.07-0.26 0.1-0.39 0.02-0.09 0.04-0.17 0.06-0.26 0.03-0.14 0.05-0.28 0.07-0.42 0.01-0.08 0.03-0.15 0.04-0.23 0.02-0.18 0.03-0.36 0.03-0.53 0-0.03 0.01-0.06 0.01-0.09 0-0.2-0.01-0.39-0.03-0.57 -0.01-0.06-0.02-0.11-0.03-0.16 -0.02-0.12-0.04-0.24-0.08-0.34 -0.02-0.06-0.05-0.11-0.07-0.17 -0.04-0.09-0.08-0.17-0.12-0.25 -0.03-0.05-0.07-0.09-0.11-0.14 -0.05-0.06-0.11-0.12-0.18-0.17 -0.05-0.04-0.1-0.06-0.15-0.09 -0.07-0.04-0.15-0.07-0.23-0.09 -0.1-0.02-0.19-0.05-0.3-0.05 -0.27 0-0.6 0.08-0.97 0.24 -1.77 0.78-5.28 1.07-9.53 1.07 -4.88 0-10.74-0.38-16.09-0.82 -4.41-0.36-8.2-0.64-11.01-0.64 -2.11 0-3.65 0.16-4.49 0.56 -0.07 0.03-0.14 0.07-0.2 0.1 -0.09 0.05-0.16 0.11-0.23 0.18 -0.04 0.04-0.09 0.08-0.12 0.12 -0.06 0.07-0.09 0.16-0.12 0.24 -0.01 0.04-0.04 0.08-0.05 0.12 -0.02 0.13-0.02 0.27 0.02 0.42 0.05 0.17 0.08 0.33 0.11 0.5 0.01 0.03 0.01 0.06 0.02 0.09 0.03 0.16 0.05 0.32 0.06 0.48 0 0.03 0.01 0.05 0.01 0.08 0.03 0.36 0.05 0.71 0.07 1.05 0.01 0.14 0.02 0.28 0.02 0.41 0 0.04 0.01 0.07 0.01 0.11 0.01 0.12 0.02 0.24 0.04 0.36 0 0.03 0.01 0.06 0.01 0.09 0.02 0.13 0.04 0.26 0.07 0.39 0.01 0.03 0.02 0.07 0.02 0.1 0.03 0.13 0.07 0.25 0.11 0.37 0.01 0.02 0.02 0.04 0.03 0.06 0.05 0.11 0.1 0.21 0.16 0.31 0.01 0.02 0.02 0.05 0.04 0.07 0.57 0.89 1.82 1.46 4.66 1.46 1.41 0 3.22-0.14 5.54-0.46 3.46-0.47 5.69-0.67 7.05-0.67 3.75 0 0.8 1.48-1.42 2.59 -1.73 0.87 1.27 1.69 4.7 1.69 2.55 0 5.33-0.45 6.57-1.68 1.71-1.7 5.47-1.87 8.72-1.87 0.81 0 1.58 0.01 2.29 0.01C364.54 235.44 365.57 235.41 366.16 235.22z"/>
    <path class="stroke" fill="#BE9658" d="M392.38 192.54c-1.23-0.21-1.17-1.03-2.26-2.26 -1.1-1.24-0.96-1.17 0.62-1.65 1.58-0.48 1.58-1.99 0-2.81 -0.33-0.17-0.56-0.32-0.72-0.45 -0.46-0.38-0.2-0.55 0.37-0.55l0 0c0 0 0 0 0 0 0.14 0 0.31 0.01 0.49 0.03 0.07 0.01 0.13 0.01 0.2 0.01 1.06 0 2.28-0.98 2.14-1.86 -0.27-1.62-1.39-1.78-2.22-1.78 -0.2 0-0.39 0.01-0.54 0.01 -0.35 0-0.52-0.05-0.33-0.36 0.61-1.01-0.41-2.47-1.91-2.47 -0.02 0-0.05 0-0.08 0 -0.04 0-0.07 0-0.1 0 -1.29 0-1.2-0.86-1.13-2.33 0.07-1.51-2.68-2.54-1.37-2.61 1.31-0.07 2.33-0.89 1.44-1.78 -0.89-0.89-3.77-0.89-3.43-3.15 0.34-2.26-0.82-3.84-5.01-4.53 -0.79-0.13-1.48-0.19-2.08-0.19 -2.6 0-3.69 1.04-4.91 1.83 -1.08 0.7-3.5 0.92-3.5 0.92 -3.9 0.68-5.64 0.94-6.07 0.94 -1.1 0 6.38-1.71 8.12-2.41 2.93-1.18 2.67-5.97 0.96-6.62 -0.53-0.2-1.48-0.26-2.48-0.26 -0.84 0-1.71 0.04-2.42 0.06 -0.24 0.01-0.46 0.01-0.65 0.01 -0.77 0-1.13-0.06-0.61-0.32 1.51-0.75-1.72-1.71-4.25-1.83 -2.54-0.12-2.95-1.3-4.05-1.6 -2.59-0.71-4.54-0.94-6.06-0.94 -3.04 0-4.36 0.95-5.71 0.95 -0.03 0-0.06 0-0.09 0 -0.02 0-0.04 0-0.06 0 -2 0-2.34 3.1-2.75 3.84 -0.04 0.07-0.07 0.1-0.09 0.1 -0.24 0 0.02-3.01-1.41-3.32 -0.74-0.16-1.75-0.23-3.12-0.23 -1.53 0-3.53 0.09-6.13 0.23 -4.94 0.27-4.25 1.1-5.07 2.47 0 0-0.69 0.69-3.15 0.69s-2.54 1.24-2.6 2.4c-0.07 1.17-0.27 1.72-2.13 1.72 -1.85 0-1.3 1.03-0.69 2.26 0.62 1.23-4.32 2.95-6.86 5.01 -2.54 2.06-2.47 2.47-0.62 3.22 1.85 0.75-1.85 1.51-5.83 6.45 -3.63 4.51-2.06 5.3-0.46 5.3 0.15 0 0.31-0.01 0.46-0.02 0.44-0.04 0.73-0.08 0.89-0.08 0.47 0-0.15 0.41-1.37 2.76 -1.64 3.15-2.33 6.52-1.06 6.65 1.27 0.14 0.92 1.1 0.31 3.43 -0.62 2.33-0.27 2.19 0.82 2.33 1.1 0.14 0.82 0.55 0.82 3.84 0 3.29 2.06 3.77 3.43 3.98 0.04 0.01 0.08 0.01 0.11 0.01 1.23 0 0.75-3.25 1.94-3.92 0.22-0.12 0.34-0.18 0.4-0.18 0.3 0-0.74 1.3 0.28 3.68 0.71 1.65 2.24 2.38 3.45 2.38 0.9 0 1.61-0.41 1.66-1.14 0.06-1.08 0.42-1.89 0.97-1.89 0.32 0 0.71 0.28 1.14 0.93 0.36 0.56 0.9 0.79 1.45 0.79 1.22 0 2.56-1.11 2.46-2.29 -0.11-1.32 0.28-1.47 0.72-1.47 0.13 0 0.26 0.01 0.39 0.01 0 0 0 0 0 0 0.55 0 0.88 1.18 2.13 1.73 0.13 0.06 0.25 0.08 0.34 0.08 0.85 0 0.55-1.94 0.11-2.87 -0.43-0.93-0.48-2.01 0.14-3.52 0.23-0.57 0.49-0.88 0.72-0.88 0.37 0 0.69 0.81 0.8 2.59 0.17 2.91 2.38 4.01 4.3 4.01 0.95 0 1.83-0.27 2.35-0.72 0.36-0.31 0.74-0.45 1.12-0.45 1.3 0 2.66 1.54 3.61 2.92 0.28 0.41 0.59 0.58 0.91 0.58 1.09 0 2.38-1.96 3.75-3.6 1.12-1.33 1.81-2.26 2.6-2.26 0.47 0 0.99 0.33 1.65 1.1 1.1 1.26 3.66 1.96 5.87 1.96 1.39 0 2.63-0.28 3.26-0.86 0.48-0.44 1.17-0.62 1.96-0.62 2.04 0 4.76 1.21 6.2 2.4 1.99 1.65 6.1 1.78 7.89 4.05 0.65 0.82 1.19 1.13 1.64 1.13 0.8 0 1.29-0.96 1.51-1.74 0.18-0.63 0.62-1.15 1.02-1.15 0.4 0 0.76 0.49 0.84 1.84 0.07 1.35 0.67 1.82 1.3 1.82 0.66 0 1.36-0.51 1.57-1.07 0.21-0.56 0.52-0.88 0.94-0.88 0.41 0 0.92 0.31 1.53 1.03 0.16 0.19 0.29 0.27 0.39 0.27 0.7 0 0.21-3.85 0.09-5.82 -0.14-2.26-7.89-7.47-9.6-11.32 -0.14-0.31-0.21-0.52-0.23-0.67s0.01-0.21 0.09-0.21c0.82 0 6.88 7.42 10.16 10.48 1.07 0.99 2.05 1.38 2.92 1.38 2.31 0 3.78-2.72 3.73-3.91 -0.01-0.2-0.04-0.4-0.09-0.58 -0.33-1.28-1.39-2.05 0.31-2.05 0.02 0 0.04 0 0.06 0 0.03 0 0.07 0 0.1 0 1.58 0-0.21-0.48 1.74-2.03C394.71 195.01 393.61 192.75 392.38 192.54zM325.09 178.07c-0.6-2.53 6.59-3.65 8.22-3.62 3.92 0.07 6.25 0.61 8.75 3.78 0.49 0.62-2.84-1.47-6.51-1.42 -1.63 0.02-2.44-0.42-5.29 0.01C327.37 177.26 325.26 178.8 325.09 178.07zM322.45 193.25c-1.89 2.97-2.53 5.15-3.57 5.91 -1.17 0.85-0.7-8.82 5.5-11.45C326.35 186.87 324.74 189.67 322.45 193.25z"/>
    <path class="stroke" fill="#111111" d="M401.49 191.99c-0.33-1.29-0.9-2.47-1.65-3.49 0.01-0.1 0.02-0.2 0.03-0.3 0.01-0.11 0.02-0.22 0.03-0.33 1.12-1.87 1.55-4.04 1.2-6.15 -0.51-3.04-2.17-5.47-4.53-6.94 -0.39-0.56-0.83-1.07-1.31-1.54 0.27-2.6-0.66-5.22-2.64-7.2 -0.48-0.48-0.97-0.86-1.45-1.19 -0.89-3.41-3.62-7.47-11.35-8.73 -0.22-0.04-0.43-0.07-0.65-0.1 -1.1-2.32-2.95-4.12-5.28-5.01 -1.64-0.62-3.36-0.76-4.89-0.77 -1.88-1.13-4.35-1.83-7.33-2.04 -0.66-0.43-1.67-1.01-2.98-1.36 -3.02-0.82-5.69-1.23-8.16-1.23 -2.93 0-4.96 0.57-6.17 0.92 -0.04 0.01-0.09 0.03-0.13 0.04 -0.89 0.04-1.95 0.2-3.06 0.62 -1.09-0.17-2.33-0.24-3.88-0.24 -1.54 0-3.45 0.07-6.58 0.25 -2.42 0.13-6.45 0.36-9.38 3.25 -2.99 0.39-6.08 1.9-7.75 5.08 -1.85 0.96-2.9 2.35-3.37 3.11 -0.53 0.86-0.86 1.71-1.06 2.54 -1.17 0.67-2.4 1.42-3.53 2.34 -1.6 1.3-4.71 3.82-4.92 7.89 -0.86 0.84-1.79 1.82-2.72 2.98 -1.45 1.8-5.87 7.28-3.09 13.08 0.02 0.04 0.04 0.08 0.06 0.12 -1.01 3.02-1.42 6.4-0.07 9.36 -0.35 1.87-0.45 4.5 1.28 7.04 0.16 0.23 0.32 0.45 0.5 0.66 0.35 4.74 3.17 9.81 10.2 10.86 0.31 0.05 0.62 0.08 0.94 0.09 1.88 1.25 4.11 1.96 6.44 1.96 1.54 0 2.98-0.34 4.26-0.93 0.11 0.44 0.24 0.89 0.37 1.33 0.4 1.42 1.01 3.56 1.76 6.65 -0.29 0.27-0.56 0.56-0.82 0.89 -1.3 1.7-1.72 3.89-1.15 5.99 0.02 0.1 0.04 0.5 0.05 0.78 0.07 1.36 0.3 2.57 0.68 3.64 0.25 1.95 1.01 3.65 1.56 4.86 0.01 0.03 0.03 0.07 0.05 0.1 -0.5 2.37-1.96 5.94-3.26 9.13 -1.09 2.66-2.21 5.4-2.99 7.9 -0.35 1.12-0.87 2.51-1.42 3.98 -2.2 5.85-4.48 11.91-2.15 16.66 1.04 2.12 2.89 3.68 5.18 4.38 0.59 0.18 1.12 0.36 1.6 0.52 1.68 0.56 3.13 1.03 4.81 1.03 0.18 0 0.37-0.01 0.57-0.02 0.83 0.49 1.63 0.7 2.17 0.8 0.11 0.02 0.6 0.15 0.95 0.24 1.96 0.52 4.92 1.29 7.69 1.29 1.62 0 2.95-0.27 4.03-0.7 1.35 0.86 2.81 1.16 4.1 1.21 0.51 0.02 1.26 0.07 2.05 0.12 1.44 0.1 3.07 0.22 4.53 0.22 0.85 0 2.43 0 4.02-0.52 0.55 0.12 1.13 0.19 1.75 0.19 0.14 0 0.57 0.04 0.85 0.06 0.64 0.06 1.37 0.12 2.15 0.12 2.82 0 4.64-0.97 5.77-2.03 0.05 0 0.09 0 0.14 0 0.18 0 0.36 0 0.54-0.01 3.41-0.11 7.06-0.41 9.57-2.15 1.72 0 6.27-0.14 8.78-4.18 2.75-4.44 0.62-9.91-1.23-13.65 -1.74-3.52-2.94-6.15-3.91-8.26 -1.68-3.68-2.79-6.11-4.77-8.79 -1.49-2.04-1.77-5.52-1.48-6.44 0.4-1.24 0.76-2.62 1.07-4.06 2.01-2.73 2.72-6.51 2.32-9.12 -0.1-0.62-0.26-1.21-0.48-1.76 0.04-0.12 0.08-0.24 0.11-0.36 0.69-2.17 1.47-4.64 1.78-7.05 0.01-0.07 0.01-0.13 0.02-0.19 1.03 0.39 2.12 0.59 3.19 0.59 1.23 0 2.44-0.25 3.57-0.7 0.32 0.04 0.61 0.05 0.87 0.05 2.28 0 4.48-0.96 6.03-2.65 1.3-1.41 1.92-2.96 2.18-4.61 1.25-0.6 2.41-1.44 3.42-2.5 1.89-1.96 3.11-4.46 3.44-6.92 0.19-0.31 0.38-0.67 0.54-1.05C401.44 198.96 402.38 195.42 401.49 191.99zM324.25 215c0.42-0.22 0.82-0.46 1.21-0.73 0 0 0 0 0 0 1.32 0 2.59-0.3 3.73-0.86 0.44 0.08 0.89 0.13 1.35 0.16 1.92 1.59 3.19 5.03 3.62 5.03 0.1 0 0.16-0.21 0.16-0.7 0-0.19-0.6-2.2-0.47-4.01 1.6 1.32 3.57 2.05 5.67 2.05 3.56 0 5.97-1.92 7.7-3.82 0.02 0.01 0.04 0.01 0.06 0.02 0.47 3.46 0.93 7.4 1.76 7.47 0.01 0 0.02 0 0.02 0 1.06 0-0.06-6.76 0.85-6.76 0.02 0 0.04 0 0.06 0.01 0.42 0.13 1.93 6.18 2.88 6.9 0.11 0.08 0.2 0.12 0.29 0.12 0.86 0 0.87-3.68 1.56-6.79 1.69-0.12 3.24-0.49 4.6-1.09 0.19 0.09 0.35 0.18 0.46 0.26 1.96 1.62 4.15 2.37 5.91 2.97 0.39 0.13 0.92 0.32 1.28 0.46 0.98 1.1 1.99 1.88 2.98 2.42 -0.07 1.35-0.44 2.91-0.9 4.46 -0.58-0.15-1.19-0.23-1.82-0.23 -1.12 0-2.26 0.25-3.39 0.75 -0.04 0.01-1.52 0.56-7.11 0.56 -3.97 0-9.08-0.26-15.6-0.8 -4.96-0.41-8.62-0.66-11.5-0.66 -1.1 0-2.25 0.03-3.38 0.15C325.28 218.54 324.6 216.31 324.25 215zM363.28 235.44c-0.7 0-1.48-0.01-2.29-0.01 -3.25 0-7 0.17-8.71 1.87 -1.24 1.23-4.02 1.69-6.57 1.69 -3.42 0-6.42-0.82-4.69-1.68 2.22-1.11 5.17-2.59 1.42-2.59 -1.35 0-3.59 0.19-7.04 0.67 -2.31 0.32-4.12 0.46-5.54 0.46 -2.84 0-4.09-0.58-4.66-1.46 -0.01-0.02-0.02-0.04-0.04-0.07 -0.06-0.1-0.11-0.21-0.16-0.31 -0.01-0.02-0.02-0.04-0.03-0.06 -0.05-0.12-0.08-0.24-0.11-0.37 -0.01-0.03-0.02-0.07-0.02-0.1 -0.03-0.13-0.05-0.26-0.07-0.39 0-0.03-0.01-0.06-0.01-0.09 -0.01-0.12-0.03-0.24-0.04-0.36 0-0.04-0.01-0.07-0.01-0.11 -0.01-0.14-0.02-0.27-0.02-0.41 -0.02-0.34-0.03-0.7-0.07-1.05 0-0.03 0-0.05-0.01-0.08 -0.02-0.16-0.04-0.32-0.06-0.48 0-0.03-0.01-0.06-0.02-0.09 -0.03-0.16-0.06-0.33-0.11-0.49 -0.04-0.15-0.05-0.29-0.02-0.42 0.01-0.04 0.03-0.08 0.05-0.12 0.03-0.08 0.06-0.16 0.12-0.24 0.03-0.04 0.08-0.08 0.12-0.12 0.07-0.06 0.14-0.12 0.23-0.18 0.06-0.04 0.13-0.07 0.2-0.1 0.84-0.4 2.38-0.56 4.49-0.56 2.81 0 6.59 0.28 11.01 0.64 5.35 0.44 11.21 0.82 16.09 0.82 4.26 0 7.76-0.29 9.54-1.07 0.37-0.16 0.7-0.24 0.97-0.24 0.11 0 0.21 0.03 0.3 0.05 0.08 0.02 0.16 0.05 0.23 0.09 0.05 0.03 0.1 0.05 0.15 0.09 0.06 0.05 0.12 0.11 0.18 0.17 0.04 0.04 0.08 0.09 0.11 0.14 0.05 0.08 0.09 0.16 0.12 0.25 0.02 0.06 0.05 0.11 0.07 0.17 0.03 0.11 0.06 0.22 0.08 0.34 0.01 0.05 0.03 0.1 0.03 0.16 0.02 0.18 0.04 0.37 0.03 0.57 0 0.03 0 0.06-0.01 0.09 0 0.17-0.01 0.35-0.03 0.53 -0.01 0.08-0.02 0.15-0.04 0.23 -0.02 0.14-0.04 0.28-0.07 0.42 -0.02 0.09-0.04 0.18-0.06 0.26 -0.03 0.13-0.06 0.26-0.1 0.39 -0.03 0.09-0.06 0.18-0.08 0.27 -0.04 0.13-0.08 0.25-0.13 0.37 -0.03 0.09-0.07 0.18-0.11 0.26 -0.05 0.12-0.1 0.23-0.16 0.34 -0.04 0.08-0.08 0.16-0.12 0.24 -0.06 0.11-0.12 0.21-0.18 0.31 -0.04 0.07-0.09 0.14-0.13 0.21 -0.07 0.1-0.14 0.18-0.21 0.27 -0.05 0.06-0.09 0.12-0.14 0.17 -0.08 0.08-0.16 0.15-0.25 0.22 -0.04 0.03-0.08 0.08-0.13 0.11 -0.01 0.01-0.03 0.01-0.04 0.02 0 0 0 0.01 0 0.01 -0.11 0.07-0.23 0.13-0.35 0.17C365.57 235.41 364.54 235.44 363.28 235.44zM375.78 268.09c4.36 8.82 0.34 9.16-2.34 9.16 -0.23 0-0.44 0-0.65 0 -2.57 0-2.06-4.01-4.84-5.35 -0.37-0.18-0.63-0.26-0.8-0.26 -1.13 0 1.55 3.41 3.07 5.19 1.75 2.06-3.09 2.47-6.38 2.57 -0.12 0-0.24 0.01-0.35 0.01 -2.97 0-3.34-1.39-5.72-8.23 -1.6-4.6-3.11-6.99-3.73-6.99 -0.33 0-0.4 0.71-0.08 2.16 0.93 4.12 1.96 7.21 4.73 11.73 1.75 2.85 0.57 3.38-1.11 3.38 -0.99 0-2.16-0.18-3-0.18 -2.27 0-3.5-4.32-5.25-6.59 -1.37-1.77-3.77-12.53-4.6-12.53 -0.23 0-0.33 0.82-0.27 2.86 0.31 9.47 5.49 13.79 6.82 15.54 0.63 0.83-0.64 1.06-2.48 1.06 -2.05 0-4.79-0.28-6.36-0.34 -2.98-0.1-2.57-4.94-3.28-5.04 -0.04 0-0.07-0.01-0.1-0.01 -0.61 0-0.7 0.96-2.07 3.4 -0.47 0.84-1.56 1.13-2.89 1.13 -2.73 0-6.42-1.23-7.6-1.44 -1.75-0.31-0.1-11.52-0.1-11.52s-0.82 2.37-1.54 7.2c-0.39 2.6-0.95 3.45-2.13 3.45 -1.01 0-2.47-0.62-4.66-1.29 -4.73-1.44 0.52-11.52 2.37-17.49 1.72-5.52 5.54-12.94 6.48-18.04 0.91 0.14 1.88 0.22 2.94 0.22 1.61 0 3.49-0.14 5.76-0.44 2.44 3.58 8.05 3.58 10.1 3.58 3.25 0 7.65-0.56 10.52-3.16 0.48-0.17 1.69-0.39 4.77-0.39 0.4 0 0.8 0 1.18 0.01 0.38 0 0.75 0.01 1.11 0.01 0.64 0 1.2-0.01 1.73-0.04 -0.42 3.02 0.42 7.51 2.65 10.55C370.23 255.44 371.05 258.53 375.78 268.09zM392.72 196.59c-1.95 1.55-0.16 2.03-1.74 2.03 -0.03 0-0.06 0-0.1 0 -0.02 0-0.04 0-0.06 0 -1.7 0-0.65 0.77-0.31 2.05 0.05 0.18 0.08 0.38 0.09 0.58 0.05 1.2-1.42 3.91-3.73 3.91 -0.87 0-1.85-0.38-2.92-1.38 -3.28-3.06-9.34-10.48-10.16-10.48 -0.08 0-0.11 0.07-0.09 0.21s0.1 0.36 0.24 0.67c1.72 3.84 9.47 9.05 9.6 11.32 0.12 1.97 0.61 5.82-0.09 5.82 -0.1 0-0.23-0.08-0.39-0.27 -0.61-0.71-1.12-1.03-1.53-1.03 -0.42 0-0.73 0.33-0.94 0.88 -0.21 0.56-0.91 1.07-1.57 1.07 -0.64 0-1.23-0.47-1.3-1.82 -0.07-1.35-0.44-1.83-0.83-1.83 -0.41 0-0.85 0.52-1.02 1.15 -0.22 0.79-0.72 1.74-1.51 1.74 -0.45 0-1-0.31-1.64-1.13 -1.78-2.26-5.9-2.4-7.89-4.04 -1.43-1.19-4.15-2.4-6.2-2.4 -0.79 0-1.48 0.18-1.96 0.62 -0.64 0.58-1.88 0.86-3.26 0.86 -2.2 0-4.77-0.7-5.87-1.96 -0.66-0.77-1.18-1.1-1.65-1.1 -0.8 0-1.48 0.93-2.6 2.26 -1.37 1.64-2.67 3.6-3.75 3.6 -0.32 0-0.63-0.17-0.91-0.58 -0.95-1.38-2.31-2.92-3.61-2.92 -0.38 0-0.76 0.13-1.12 0.45 -0.52 0.45-1.4 0.72-2.35 0.72 -1.92 0-4.14-1.1-4.3-4.01 -0.1-1.78-0.42-2.59-0.79-2.59 -0.23 0-0.48 0.31-0.71 0.88 -0.62 1.51-0.57 2.59-0.14 3.52 0.43 0.94 0.73 2.87-0.11 2.87 -0.1 0-0.21-0.03-0.34-0.08 -1.26-0.55-1.58-1.73-2.13-1.73 0 0 0 0 0 0 -0.13 0-0.26-0.01-0.39-0.01 -0.44 0-0.82 0.15-0.72 1.47 0.09 1.18-1.24 2.29-2.46 2.29 -0.55 0-1.08-0.23-1.45-0.79 -0.43-0.66-0.81-0.93-1.13-0.93 -0.55 0-0.91 0.81-0.97 1.89 -0.04 0.73-0.75 1.14-1.65 1.14 -1.2 0-2.74-0.73-3.45-2.37 -1.02-2.37 0.02-3.68-0.28-3.68 -0.06 0-0.19 0.06-0.4 0.18 -1.2 0.67-0.72 3.92-1.94 3.92 -0.04 0-0.07 0-0.11-0.01 -1.37-0.21-3.43-0.69-3.43-3.98 0-3.29 0.28-3.7-0.82-3.84 -1.1-0.14-1.44 0-0.82-2.33 0.62-2.33 0.97-3.29-0.31-3.43 -1.27-0.14-0.58-3.5 1.06-6.65 1.23-2.35 1.84-2.76 1.37-2.76 -0.16 0-0.45 0.05-0.89 0.08 -0.15 0.01-0.3 0.02-0.46 0.02 -1.6 0-3.17-0.79 0.46-5.3 3.98-4.94 7.68-5.69 5.83-6.45 -1.85-0.75-1.92-1.17 0.62-3.22 2.54-2.06 7.48-3.77 6.86-5.01 -0.62-1.23-1.16-2.26 0.69-2.26 1.85 0 2.06-0.55 2.13-1.71 0.07-1.16 0.14-2.4 2.61-2.4s3.16-0.69 3.16-0.69c0.82-1.37 0.14-2.2 5.08-2.47 2.6-0.14 4.6-0.23 6.13-0.23 1.38 0 2.38 0.07 3.13 0.23 1.43 0.31 1.17 3.33 1.41 3.33 0.03 0 0.06-0.03 0.1-0.1 0.41-0.74 0.75-3.84 2.75-3.84 0.02 0 0.04 0 0.07 0 0.03 0 0.06 0 0.09 0 1.35 0 2.67-0.95 5.71-0.95 1.52 0 3.47 0.24 6.06 0.94 1.1 0.3 1.51 1.48 4.05 1.6 2.54 0.12 5.76 1.08 4.25 1.83 -0.52 0.26-0.15 0.32 0.61 0.32 0.19 0 0.41 0 0.65-0.01 0.71-0.02 1.59-0.06 2.42-0.06l0 0c1 0 1.95 0.05 2.48 0.26 1.72 0.65 1.97 5.44-0.96 6.62 -1.74 0.71-9.23 2.42-8.12 2.42 0.43 0 2.17-0.26 6.07-0.94 0 0 2.42-0.23 3.5-0.92 1.22-0.79 2.31-1.83 4.91-1.83 0.61 0 1.29 0.06 2.09 0.19 4.18 0.69 5.35 2.26 5.01 4.53 -0.34 2.26 2.54 2.26 3.43 3.16 0.89 0.89-0.14 1.72-1.44 1.78 -1.3 0.07 1.44 1.1 1.37 2.61 -0.06 1.47-0.16 2.33 1.13 2.33 0.03 0 0.07 0 0.1 0 0.03 0 0.05 0 0.08 0 1.5 0 2.52 1.46 1.91 2.47 -0.19 0.32-0.02 0.37 0.33 0.37 0.15 0 0.34-0.01 0.54-0.01 0.83 0 1.95 0.16 2.22 1.78 0.15 0.88-1.08 1.86-2.14 1.86 -0.07 0-0.13 0-0.2-0.01 -0.18-0.02-0.34-0.03-0.49-0.03 0 0 0 0 0 0 -0.56 0-0.83 0.17-0.37 0.55 0.15 0.13 0.39 0.27 0.72 0.45 1.58 0.82 1.58 2.33 0 2.81 -1.58 0.48-1.71 0.41-0.62 1.65 1.1 1.23 1.03 2.06 2.26 2.26C393.61 192.75 394.71 195.01 392.72 196.59z"/>
    <path class="stroke" d="M324.37 187.71c-6.2 2.63-6.67 12.3-5.5 11.45 1.04-0.75 1.69-2.94 3.58-5.91C324.74 189.67 326.35 186.87 324.37 187.71z"/>
    <path class="stroke" d="M335.55 176.82c3.67-0.05 7 2.04 6.51 1.42 -2.5-3.17-4.83-3.71-8.75-3.78 -1.63-0.03-8.83 1.09-8.22 3.62 0.17 0.72 2.27-0.81 5.17-1.25C333.11 176.4 333.92 176.84 335.55 176.82z"/>
    <path class="stroke" fill="#BE9658" d="M242.6 174.46c-0.05-0.46-1.66-2.28-8.28-4.58 -5.16-1.8-11.23-3.13-15.86-3.48 -10.05-0.76-28.85-2.95-35.65-6.36 -0.95 0.43-2.85 5.61-3.65 10.96 -0.93 6.25-0.11 13.79 2.36 21.83 1.65 5.38 3.29 6.28 4.82 6.28 0.08 0 0.17 0 0.25-0.01 1.67-0.09 3.8-1.16 6.51-2.51 2.44-1.21 5.19-2.59 8.51-3.71 5.22-1.77 25.98-4.4 27.96-4.51 0.13-0.01 0.27-0.01 0.42-0.01 0.91 0 2.17 0.14 2.6 0.47 0.46 0.35-1.93 1.28-2.77 1.43 -6.1 1.08-7.79 2.3-7.92 2.68 0.01 0.03 0.02 0.23 0.05 0.55 0.88 12.01 0.68 17.76 0.36 20.47 -0.76 6.42-4.9 28.77-6.8 38.45 -1.8 9.12 0.45 19.7 0.47 19.81 1.45 5.78 4.18 12.08 6.58 12.89 0.33 0.11 0.65 0.16 0.97 0.16 0.06 0 0.11 0 0.17 0 1.75-0.1 3.51-1.82 5.21-3.48 1.21-1.18 2.46-2.4 3.8-3.16 1.13-0.64 1.32-4.22 1.08-8.89 -0.26-5-1.01-11.25-1.64-16.49 -0.94-7.84-1.92-15.95-1.81-21.58 0.06-2.74 0.1-5.42 0.14-8.02 0.18-11.37 0.34-21.2 1.71-27.47 1.61-7.32 4.96-8.91 7.34-9.46 0.5-0.12 1.09-0.17 1.64-0.2l1.02-0.05c0.91-0.05 1.34-0.13 1.55-0.2 0.18-2.53-0.15-4.78-0.54-7.37C242.98 177.5 242.76 176.08 242.6 174.46z"/>
    <path class="stroke" fill="#111111" d="M251.1 177.69l-0.03-0.22c-0.19-1.26-0.37-2.46-0.5-3.79l0-0.03 0-0.03c-0.5-4.78-4.57-8.16-13.6-11.3 -5.85-2.04-12.53-3.49-17.89-3.9 -14.52-1.1-28.56-3.48-32.67-5.53l-3.42-1.71 -3.48 1.59c-3.4 1.55-4.95 4.91-6.12 8.31 -0.93 2.69-1.68 5.8-2.12 8.76 -1.1 7.42-0.19 16.19 2.63 25.35 0.91 2.95 3.67 11.93 12.47 11.93 0.24 0 0.47-0.01 0.71-0.02 3.31-0.19 6.23-1.64 9.61-3.33l0.1-0.05c2.29-1.14 4.65-2.32 7.4-3.24 1.61-0.54 5.65-1.28 10.1-1.98 0.52 8.85 0.3 12.86 0.1 14.53 -0.73 6.14-4.81 28.23-6.71 37.85 -2.15 10.89 0.48 22.97 0.51 23.09l0.02 0.1 0.03 0.1c1.82 7.25 5.33 16.35 11.78 18.53l0.04 0.01 0.04 0.01c1.13 0.37 2.29 0.56 3.45 0.56 0.21 0 0.41-0.01 0.62-0.02 4.76-0.28 7.99-3.44 10.36-5.75 0.69-0.67 1.71-1.67 2.14-1.92 5.35-3.02 5.47-9.69 5.13-16.27 -0.27-5.28-1.06-11.8-1.69-17.04 -0.91-7.58-1.85-15.39-1.75-20.46 0.06-2.75 0.1-5.45 0.14-8.07l0-0.06c0.17-10.46 0.32-20.34 1.52-25.81 0.5-2.27 1.09-3.14 1.27-3.36 0.07 0 0.17-0.01 0.33-0.02l1-0.05c1.63-0.09 2.74-0.28 3.76-0.64l4.96-1.73 0.38-5.24C251.95 183.4 251.52 180.5 251.1 177.69zM243.72 186.25c-0.2 0.07-0.64 0.15-1.55 0.2l-1.02 0.05c-0.55 0.03-1.14 0.08-1.64 0.2 -2.38 0.56-5.73 2.15-7.34 9.46 -1.37 6.27-1.53 16.1-1.71 27.47 -0.04 2.6-0.08 5.28-0.14 8.02 -0.12 5.63 0.86 13.74 1.81 21.58 0.63 5.25 1.39 11.5 1.64 16.5 0.24 4.68 0.05 8.26-1.08 8.89 -1.34 0.76-2.59 1.98-3.8 3.16 -1.7 1.67-3.46 3.38-5.21 3.48 -0.06 0-0.11 0.01-0.17 0.01 -0.32 0-0.64-0.05-0.97-0.16 -2.4-0.81-5.14-7.11-6.58-12.89 -0.02-0.1-2.27-10.69-0.47-19.81 1.91-9.68 6.04-32.02 6.8-38.45 0.32-2.71 0.52-8.46-0.36-20.47 -0.02-0.32-0.04-0.52-0.05-0.55 0.13-0.38 1.82-1.6 7.92-2.68 0.84-0.15 3.23-1.08 2.77-1.43 -0.43-0.33-1.68-0.47-2.6-0.47 -0.15 0-0.29 0-0.42 0.01 -1.98 0.11-22.74 2.75-27.96 4.51 -3.31 1.12-6.07 2.49-8.51 3.71 -2.7 1.35-4.83 2.41-6.51 2.51 -0.08 0.01-0.16 0.01-0.25 0.01 -1.54 0-3.17-0.9-4.82-6.28 -2.47-8.03-3.29-15.58-2.36-21.83 0.79-5.35 2.7-10.53 3.65-10.96 6.8 3.41 25.6 5.6 35.65 6.36 4.63 0.35 10.71 1.68 15.86 3.48 6.61 2.3 8.23 4.13 8.28 4.58 0.16 1.62 0.38 3.04 0.58 4.42C243.57 181.47 243.91 183.72 243.72 186.25z"/>
    <path class="stroke" fill="#BE9658" d="M246.05 373.63c-4.11-3.54-12.23-5.27-22.86-4.88l-0.74 0.03c-0.25 0.02-0.55 0.04-0.85 0.06l-0.6 0.05c-3.21 0.28-6.05 0.56-8.41 0.85 -1.37 0.2-2.83 0.45-4.3 0.73 -0.15 0.03-0.28 0.06-0.4 0.08 -9.54 2.01-17.09 9.63-21.98 16.15 6.88-3.91 18-8.77 29.71-11.24 7.08-1.49 13.77-2 19.83-1.53 5.53 0.3 9.76 1.28 12.76 2.28C247.66 375.25 246.95 374.4 246.05 373.63z"/>
    <path class="stroke" fill="#BE9658" d="M214.27 363.62c2.7-0.34 5.39-0.57 7.97-0.69 1.07-0.07 2.11-0.13 3.08-0.16 6.79-0.25 10.37 0.42 12.1 0.81 0.39-0.35 0.89-0.8 1.4-1.28l0.95-0.88c5.92-5.46 18.18-16.76 34.13-24.35l-1.33-9.55c-6.3 3.16-13.8 7.18-19.32 10.93 -11.44 7.78-28.25 22.36-28.42 22.51 -0.34 0.28-0.68 0.46-1.06 0.56l-0.27 0.06 -0.27 0.02c-0.73 0.03-1.44-0.26-1.96-0.79 -0.96-0.98-0.98-2.55-0.03-3.57 0.13-0.14 16.87-17.89 31.52-26.98 7.31-4.53 13.77-7.62 18.84-9.68l-1.37-9.89c-4.88 2.73-10.45 6.19-16.19 10.33C241.91 329.76 225.39 344.12 214.27 363.62z"/>
    <path class="stroke" fill="#BE9658" d="M216.61 380.29c-11.66 2.45-22.65 7.37-29.06 11.14 -8.8 5.2-11.56 10.52-14 15.21 -0.39 0.75-0.77 1.49-1.16 2.19 -0.14 0.26-0.58 1.05-1.46 1.23 0 0 0 0 0 0.01 -0.51 0.1-1.02-0.03-1.44-0.36 -0.39-0.29-0.7-0.82-0.96-1.76 -1.12-2.53-1.35-8.77-1.39-20.14 0-0.24-0.01-0.48 0-0.73 -0.07-2.42-0.14-4.78-0.22-6.9 -0.22-2.51-0.34-4.62-0.38-6.37 -0.02-0.25-0.06-0.5-0.09-0.69 -0.23-1.49-0.21-3.41-0.19-5.62l-0.54-0.07 0.01-3.1c0.01-4.72-0.34-9.83-2.97-12.02 -1.44-1.2-3.68-1.51-6.65-0.9l-0.1 0.02c-1.69 0.35-2.82 1.06-3.44 2.15 -1.78 3.1 0.29 9.37 1.67 13.52l1.81 5.46 -0.95 0c0.05 0.54 0.07 1.08 0.04 1.66 -0.04 0.84-0.1 1.35-0.63 1.12 -0.27-0.12-0.87-0.82-1.38-1.92 -0.14-0.3-0.24-0.59-0.34-0.84l-0.89 0c-3.66 1.59-10.67 5.42-9.47 11.09 0.05 0.21 0.53 0.32 0.93 0.37 0.95 0.1 2.38-0.04 4.24-0.42 1.43-0.31 4.46-1.03 5.57-1.33l0.11-0.03c0.83-0.22 1.55-0.41 2.09-0.53l2.55-0.57 1.27 2.28c2.36 4.23 6.48 22.64 8.37 31.46 0.68-0.01 1.53-0.08 1.9-0.11l0.71-0.06c1.85-0.15 3.31-0.27 6.82-0.86 6.83-1.14 16.17-2.96 27.01-5.25 14.6-3.08 27.75-6.12 29.03-6.49 1.88-0.93 6.04-9.61 9.46-22.05C235.03 378.17 226.36 378.23 216.61 380.29z"/>
    <path class="stroke" fill="#BE9658" d="M169.35 372.66c0.06 0.41 0.12 0.92 0.18 1.49 1.18 5.24 12.92 2.79 11.07 4.9 -0.59 0.68-8.1 0.04-10.72 1.63 0.07 1.96 0.13 4.12 0.2 6.39 0.17 5.86 0.4 14.05 0.91 18.15 0.13-0.25 0.27-0.51 0.4-0.77 0.22-0.56 0.46-1.24 0.73-2.06 5.86-17.86 18.17-28.97 25.38-33.36 -1.52-0.43-4.4-1.01-9.76-1.48 -5.41-0.47-13.17-0.72-17.48 0.13l-0.55 0.21 -0.51-0.06C169.17 369.73 169.17 371.48 169.35 372.66z"/>
    <path class="stroke" fill="#111111" d="M246.92 364.84c5.81-5.23 15.84-13.69 28.08-19.96l-0.65-4.7 -0.43-3.12c-15.96 7.59-28.21 18.89-34.13 24.35l-0.95 0.88c-0.52 0.48-1.01 0.93-1.4 1.28 -1.73-0.39-5.31-1.06-12.1-0.81 -0.97 0.04-2.01 0.09-3.08 0.16 -2.58 0.12-5.27 0.35-7.97 0.69 11.12-19.5 27.64-33.86 39.78-42.6 5.75-4.14 11.32-7.6 16.19-10.33l-0.44-3.18 -0.64-4.59c-5.85 3.14-12.66 7.29-19.4 12.15 -13.43 9.67-31.72 25.74-43.45 47.8 -1.14 0.24-2.29 0.54-3.44 0.91 -2.23-1.42-6.42-2.47-14.53-3.18 -2.46-0.21-9.7-0.75-15.71-0.25 -0.33-5.13-1.53-10.21-5.39-13.41 -3.15-2.63-7.36-3.43-12.53-2.38l-0.12 0.03c-3.65 0.77-6.44 2.67-8.08 5.5 -2.94 5.12-1.32 11.72 0.4 17.1 -8.72 4.41-12.82 10.83-11.33 17.94 0.7 3.23 3.3 5.42 6.98 5.86 1.73 0.19 3.85 0.02 6.49-0.53 1.15-0.25 3.43-0.78 4.97-1.17 1.28 3.89 3.57 12.38 6.91 28.12l0.03 0.13c0.85 4.03 4.67 4.44 7.46 4.33 0.6-0.02 1.15-0.07 1.62-0.11l0.7-0.06c1.94-0.16 3.61-0.3 7.4-0.94 6.92-1.16 16.36-3 27.29-5.31 14.6-3.08 27.99-6.17 29.51-6.61 5.68-1.64 10.33-13.31 13.49-24.12 0.59 0.28 0.94 0.49 1.03 0.57 1.07 0.94 2.53 1.34 3.94 1.08 0.35-0.06 0.68-0.16 0.96-0.29 1.66-0.69 2.78-2.3 2.86-4.13 0.21-5.75-1.88-10.68-6.03-14.25C249.93 366.61 248.51 365.66 246.92 364.84zM215.59 375.46c-11.7 2.47-22.83 7.33-29.71 11.24 4.9-6.52 12.45-14.14 21.99-16.14 0.13-0.03 0.25-0.06 0.4-0.08 1.47-0.28 2.94-0.53 4.3-0.73 2.36-0.29 5.2-0.57 8.41-0.85l0.6-0.05c0.3-0.02 0.6-0.05 0.85-0.06l0.75-0.03c10.63-0.39 18.74 1.35 22.86 4.88 0.9 0.77 1.61 1.62 2.13 2.57 -3-1-7.23-1.98-12.76-2.28C229.36 373.45 222.67 373.97 215.59 375.46zM169.7 367.91l0.55-0.21c4.3-0.85 12.06-0.6 17.48-0.13 5.36 0.47 8.24 1.05 9.77 1.48 -7.21 4.39-19.52 15.5-25.38 33.36 -0.27 0.82-0.51 1.51-0.73 2.06 -0.13 0.27-0.27 0.52-0.4 0.77 -0.51-4.1-0.74-12.29-0.91-18.15 -0.07-2.28-0.13-4.43-0.2-6.39 2.62-1.6 10.13-0.95 10.72-1.63 1.85-2.11-9.89 0.33-11.07-4.9 -0.05-0.57-0.11-1.08-0.18-1.49 -0.18-1.19-0.18-2.93-0.15-4.82L169.7 367.91zM233 402.1c-1.28 0.36-14.43 3.41-29.03 6.49 -10.84 2.29-20.18 4.11-27.01 5.25 -3.5 0.59-4.97 0.71-6.82 0.86l-0.7 0.06c-0.36 0.03-1.22 0.1-1.9 0.11 -1.89-8.83-6.01-27.23-8.37-31.46l-1.27-2.28 -2.54 0.57c-0.54 0.12-1.26 0.31-2.09 0.53l-0.11 0.03c-1.1 0.3-4.13 1.02-5.57 1.33 -1.86 0.39-3.29 0.53-4.24 0.42 -0.4-0.05-0.88-0.15-0.93-0.37 -1.19-5.67 5.82-9.5 9.48-11.09l0.89 0c0.11 0.25 0.21 0.54 0.34 0.84 0.5 1.1 1.11 1.8 1.38 1.92 0.53 0.24 0.59-0.27 0.63-1.12 0.03-0.57 0.01-1.12-0.04-1.66l0.95 0 -1.81-5.46c-1.37-4.15-3.45-10.42-1.67-13.52 0.63-1.09 1.76-1.79 3.44-2.14l0.1-0.02c2.97-0.6 5.2-0.3 6.65 0.91 2.64 2.19 2.98 7.31 2.98 12.02l0 3.1 0.54 0.07c-0.03 2.21-0.05 4.13 0.19 5.62 0.03 0.2 0.06 0.44 0.09 0.7 0.04 1.76 0.16 3.86 0.38 6.37 0.07 2.11 0.15 4.48 0.22 6.9 -0.01 0.25 0 0.49 0 0.73 0.04 11.38 0.27 17.61 1.39 20.15 0.26 0.94 0.57 1.46 0.96 1.76 0.41 0.33 0.93 0.46 1.44 0.36 0-0.01 0-0.01 0-0.01 0.88-0.18 1.32-0.97 1.46-1.23 0.39-0.69 0.77-1.43 1.16-2.19 2.44-4.69 5.19-10.01 14-15.21 6.41-3.77 17.41-8.69 29.06-11.14 9.74-2.06 18.41-2.12 25.84-0.24C239.04 392.49 234.88 401.17 233 402.1z"/>
    <path class="stroke" fill="#111111" d="M221.26 357.24c-0.95 1.02-0.93 2.58 0.03 3.57 0.51 0.53 1.23 0.81 1.96 0.79l0.27-0.02 0.27-0.06c0.38-0.1 0.72-0.28 1.06-0.56 0.17-0.14 16.98-14.73 28.42-22.51 5.52-3.75 13.02-7.77 19.32-10.93l-0.96-6.94c-5.08 2.06-11.54 5.15-18.84 9.68C238.13 339.34 221.38 357.09 221.26 357.24z"/>
    <path class="stroke" fill="none" d="M374.8 409.05c-0.04 0.31-0.08 0.64-0.12 0.97 0.1-0.06 0.2-0.19 0.3-0.41l0.02-1.8C374.92 408.22 374.85 408.63 374.8 409.05z"/>
    <path class="stroke" fill="none" d="M403.22 367.58C403.22 367.58 403.22 367.58 403.22 367.58c-0.37 0-0.81-0.3-1.31-0.78C402.4 367.29 402.84 367.58 403.22 367.58z"/>
    <path class="stroke" fill="#BE9658" d="M392.84 354.5c-2.73-1.29-5.13-3.19-6.68-4.57 -6.14-6.77-4.43-10.48-2.67-12.82 0.82-1.08 2.82-1.74 4.1-1.74 0.21 0 0.4 0.02 0.56 0.05 0.55 0.12 1.03 0.19 1.42 0.19 0.97 0 1.4-0.45 0.87-1.77 -0.71-1.77-3.11-3.11-6.04-3.69 -0.9-0.18-1.81-0.25-2.71-0.25 -2.63 0-5.21 0.62-7.38 1.02 -1.59 0.3-3.21 0.4-4.69 0.4 -1.27 0-2.44-0.08-3.4-0.17 -8.95-1.87-9.75-5.87-9.7-8.8 0.03-1.58 1.68-3.63 2.77-4.11 1.78-0.78 2.62-1.56 0.93-2.62 -0.65-0.41-1.49-0.6-2.43-0.6 -1.39 0-3.01 0.42-4.62 1.16 -3.26 1.51-5.67 4.41-7.71 6.56 -2.07 2.19-4.62 3.89-6.4 4.94 -2.95 1.33-5.23 1.84-7.02 1.84 -3.27 0-4.91-1.71-6-3.26 -0.9-1.29-0.77-3.92-0.17-4.95 0.93-1.59 1.18-2.68-0.49-2.68 -0.09 0-0.19 0-0.3 0.01 -1.9 0.13-3.92 1.99-5.38 4.6 -1.75 3.13-2 6.9-2.38 9.84 -0.39 2.99-1.45 5.86-2.28 7.76 -3.22 5.62-6.19 7.02-8.64 7.02 -1.01 0-1.93-0.24-2.73-0.52 -1.49-0.51-2.93-2.72-3.05-3.9 -0.13-1.34-0.41-2.26-1.08-2.26 -0.29 0-0.66 0.17-1.13 0.56 -1.46 1.22-2 3.92-1.65 6.88 0.43 3.57 2.44 6.76 3.86 9.36 1.44 2.65 2.27 5.59 2.72 7.62 0.99 9.09-2.57 11.09-5.38 11.95 -0.27 0.08-0.58 0.12-0.9 0.12 -1.45 0-3.21-0.76-3.86-1.49 -0.7-0.79-1.32-1.32-1.82-1.32 -0.41 0-0.74 0.36-0.96 1.24 -0.47 1.85 0.68 4.35 2.71 6.54 2.44 2.63 5.95 4.04 8.62 5.31 2.73 1.3 5.13 3.19 6.68 4.57 6.14 6.77 4.43 10.48 2.67 12.82 -0.81 1.09-2.81 1.75-4.1 1.75 -0.21 0-0.4-0.02-0.56-0.05 -0.55-0.12-1.03-0.19-1.42-0.19 -0.97 0-1.4 0.45-0.87 1.77 0.71 1.77 3.11 3.11 6.04 3.69 0.9 0.18 1.8 0.25 2.71 0.25 2.63 0 5.22-0.62 7.39-1.02 1.59-0.3 3.21-0.4 4.69-0.4 1.27 0 2.44 0.08 3.4 0.17 8.95 1.87 9.75 5.87 9.7 8.8 -0.03 1.58-1.68 3.63-2.77 4.11 -1.78 0.78-2.62 1.56-0.93 2.63 0.65 0.41 1.49 0.6 2.43 0.6 1.39 0 3.01-0.42 4.63-1.16 3.26-1.51 5.68-4.41 7.71-6.56 2.07-2.19 4.62-3.89 6.41-4.94 2.95-1.33 5.23-1.84 7.02-1.84 3.27 0 4.91 1.71 6 3.26 0.91 1.29 0.77 3.93 0.17 4.95 -0.93 1.59-1.18 2.68 0.49 2.68 0.09 0 0.19 0 0.3-0.01 1.9-0.13 3.92-1.99 5.38-4.6 1.75-3.13 2-6.9 2.38-9.84 0.39-2.99 1.45-5.86 2.28-7.76 3.22-5.62 6.19-7.02 8.64-7.02 1.01 0 1.93 0.24 2.74 0.52 1.49 0.51 2.93 2.72 3.05 3.9 0.14 1.34 0.41 2.26 1.08 2.26 0.29 0 0.66-0.17 1.13-0.56 1.47-1.22 2-3.92 1.65-6.88 -0.42-3.56-2.44-6.76-3.86-9.36 -1.44-2.65-2.27-5.59-2.72-7.62 -0.99-9.09 2.57-11.09 5.38-11.95 0.27-0.08 0.58-0.12 0.9-0.12 1.45 0 3.21 0.76 3.86 1.49 0.18 0.2 0.35 0.38 0.51 0.54 0.5 0.48 0.94 0.78 1.31 0.78 0.31 0 0.57-0.2 0.78-0.68 0.07-0.16 0.13-0.35 0.19-0.56 0.47-1.85-0.68-4.35-2.71-6.54C399.03 357.17 395.52 355.77 392.84 354.5zM347.77 381.46c-5.64 0-10.23-4.59-10.23-10.23 0-5.64 4.59-10.23 10.23-10.23 5.64 0 10.23 4.59 10.23 10.23C358 376.87 353.41 381.46 347.77 381.46zM365.96 392.84c-4.34 3.65-9.78 6.02-15.76 6.53v-14.78c1.94-0.35 3.74-1.11 5.31-2.2L365.96 392.84zM326.15 353.03l10.46 10.46c-1.08 1.56-1.85 3.36-2.2 5.31H319.62C320.13 362.82 322.5 357.37 326.15 353.03zM329.58 349.6c4.34-3.65 9.78-6.02 15.76-6.53v14.78c-1.94 0.35-3.74 1.11-5.31 2.2L329.58 349.6zM334.41 373.65c0.35 1.94 1.11 3.74 2.2 5.31l-10.45 10.46c-3.65-4.34-6.02-9.78-6.53-15.76H334.41zM340.03 382.39c1.56 1.08 3.36 1.85 5.31 2.2v14.79c-5.98-0.51-11.43-2.88-15.76-6.53L340.03 382.39zM355.5 360.06c-1.56-1.08-3.36-1.85-5.31-2.2v-14.78c5.98 0.51 11.43 2.88 15.76 6.53L355.5 360.06zM369.39 353.03c3.65 4.34 6.02 9.78 6.53 15.76h-14.78c-0.35-1.94-1.11-3.74-2.2-5.31L369.39 353.03zM369.39 389.41l-10.45-10.46c1.08-1.56 1.85-3.36 2.2-5.31l14.79 0C375.4 379.63 373.04 385.07 369.39 389.41zM374.68 410.02c0.04-0.33 0.08-0.66 0.12-0.97 0.05-0.42 0.12-0.83 0.2-1.24l-0.02 1.8C374.88 409.83 374.78 409.96 374.68 410.02z"/>
    <path class="stroke" fill="#111111" d="M407.34 354.37c-3.21-3.46-7.18-5.3-10.08-6.64 -0.34-0.15-0.67-0.31-0.98-0.46 -1.36-0.64-2.93-1.71-4.46-3.03 -0.23-0.27-0.44-0.52-0.63-0.75 2.49-0.39 4.62-1.71 6-3.74 1-1.47 2.41-4.58 0.7-8.87 -1.71-4.29-6.06-7.42-11.92-8.57 -1.34-0.27-2.77-0.4-4.25-0.4 -2.97 0-5.65 0.53-7.8 0.96 -0.36 0.07-0.72 0.14-1.06 0.21 -0.93 0.18-2.01 0.26-3.21 0.26 -0.71 0-1.44-0.03-2.18-0.09 -0.36-0.08-0.68-0.16-0.97-0.25 1.91-1.87 2.52-3.96 2.65-5.63 0.12-1.61-0.09-5.65-4.63-8.51 -1.91-1.2-4.22-1.83-6.69-1.83 -2.53 0-5.29 0.66-7.98 1.9 -4.29 1.98-7.26 5.19-9.43 7.54 -0.25 0.27-0.5 0.54-0.74 0.79 -1.03 1.1-2.54 2.26-4.26 3.31 -0.33 0.14-0.63 0.26-0.91 0.37 0.35-2.08 0.01-4.04-1.03-5.86 -0.77-1.33-3.08-4.44-8.06-4.44 -0.26 0-0.54 0.01-0.83 0.03 -4.61 0.31-8.92 3.47-11.83 8.68 -2.3 4.12-2.82 8.46-3.2 11.64 -0.04 0.37-0.09 0.73-0.13 1.08 -0.19 1.49-0.73 3.32-1.5 5.18 -0.19 0.32-0.37 0.6-0.54 0.85 -2.37-4.74-7.14-4.9-7.8-4.9 -2.22 0-4.32 0.81-6.25 2.42 -3.55 2.96-5.18 8.05-4.47 13.98 0.56 4.69 2.69 8.51 4.25 11.3 0.18 0.33 0.36 0.64 0.53 0.95 0.72 1.32 1.37 3.11 1.83 5.08 0.03 0.36 0.05 0.69 0.07 0.98 -1.14-0.59-2.52-1.01-4.11-1.01 -3.17 0-7.36 1.91-8.72 7.29 -1.13 4.47 0.54 9.55 4.6 13.93 3.21 3.47 7.19 5.3 10.09 6.65 0.34 0.16 0.67 0.31 0.98 0.46 1.36 0.65 2.94 1.72 4.47 3.03 0.24 0.27 0.44 0.52 0.63 0.75 -2.49 0.4-4.62 1.71-5.99 3.74 -1 1.47-2.41 4.58-0.7 8.87 1.71 4.29 6.06 7.41 11.91 8.57 1.35 0.27 2.78 0.4 4.26 0.4 2.97 0 5.64-0.53 7.79-0.95 0.37-0.07 0.72-0.14 1.07-0.21 0.94-0.18 2.02-0.26 3.21-0.26 0.71 0 1.44 0.03 2.18 0.09 0.36 0.08 0.68 0.16 0.97 0.25 -1.91 1.88-2.52 3.96-2.65 5.63 -0.12 1.61 0.09 5.65 4.63 8.51 1.91 1.2 4.22 1.83 6.69 1.83 2.53 0 5.29-0.66 7.98-1.9 4.28-1.98 7.26-5.19 9.43-7.53 0.25-0.27 0.5-0.54 0.74-0.79 1.04-1.1 2.54-2.26 4.26-3.31 0.33-0.14 0.64-0.26 0.91-0.37 -0.35 2.08-0.01 4.04 1.03 5.85 0.77 1.33 3.09 4.44 8.07 4.44 0.26 0 0.53-0.01 0.82-0.03 4.61-0.3 8.92-3.47 11.84-8.68 2.3-4.13 2.82-8.47 3.2-11.65 0.04-0.37 0.09-0.73 0.13-1.07 0.19-1.49 0.73-3.32 1.5-5.18 0.19-0.32 0.37-0.6 0.54-0.85 2.38 4.74 7.14 4.9 7.8 4.9 2.22 0 4.32-0.81 6.25-2.41 3.55-2.96 5.18-8.05 4.47-13.98 -0.56-4.69-2.69-8.51-4.25-11.3 -0.18-0.32-0.36-0.64-0.52-0.95 -0.72-1.32-1.36-3.11-1.83-5.07 -0.03-0.36-0.05-0.69-0.07-0.98 1.14 0.59 2.52 1.01 4.11 1.01 3.17 0 7.36-1.91 8.72-7.28C413.07 363.82 411.39 358.74 407.34 354.37zM404.18 366.34c-0.06 0.22-0.12 0.41-0.19 0.56 -0.2 0.47-0.47 0.68-0.78 0.68 0 0 0 0 0 0 -0.37 0-0.81-0.3-1.31-0.78 -0.16-0.16-0.34-0.34-0.51-0.54 -0.65-0.73-2.41-1.49-3.86-1.49 -0.32 0-0.63 0.04-0.9 0.12 -2.8 0.86-6.37 2.86-5.38 11.95 0.45 2.02 1.27 4.97 2.72 7.62 1.42 2.6 3.43 5.8 3.86 9.36 0.35 2.97-0.18 5.66-1.65 6.88 -0.47 0.39-0.83 0.56-1.13 0.56 -0.67 0-0.94-0.91-1.08-2.26 -0.12-1.18-1.56-3.39-3.05-3.9 -0.81-0.28-1.73-0.51-2.73-0.51 -2.44 0-5.42 1.4-8.64 7.02 -0.83 1.9-1.89 4.77-2.28 7.76 -0.38 2.94-0.63 6.71-2.38 9.84 -1.46 2.6-3.48 4.47-5.38 4.6 -0.1 0.01-0.2 0.01-0.3 0.01 -1.67 0-1.42-1.09-0.49-2.68 0.6-1.02 0.73-3.66-0.17-4.95 -1.09-1.55-2.73-3.26-6-3.26 -1.79 0-4.07 0.51-7.02 1.84 -1.79 1.05-4.33 2.75-6.4 4.94 -2.03 2.15-4.45 5.05-7.71 6.56 -1.61 0.75-3.24 1.16-4.62 1.16 -0.94 0-1.78-0.19-2.43-0.6 -1.69-1.06-0.85-1.85 0.93-2.63 1.09-0.48 2.74-2.53 2.77-4.11 0.05-2.93-0.75-6.94-9.7-8.8 -0.95-0.09-2.12-0.17-3.4-0.17 -1.48 0-3.1 0.1-4.69 0.4 -2.17 0.41-4.76 1.02-7.39 1.02 -0.9 0-1.81-0.07-2.7-0.25 -2.93-0.58-5.33-1.92-6.04-3.69 -0.53-1.32-0.1-1.77 0.87-1.77 0.39 0 0.88 0.07 1.42 0.19 0.16 0.04 0.35 0.05 0.56 0.05 1.28 0 3.28-0.66 4.1-1.75 1.76-2.34 3.47-6.05-2.67-12.82 -1.55-1.37-3.95-3.27-6.68-4.57 -2.68-1.27-6.18-2.67-8.62-5.31 -2.03-2.19-3.18-4.69-2.71-6.54 0.22-0.88 0.55-1.24 0.96-1.24 0.5 0 1.12 0.53 1.82 1.32 0.65 0.73 2.41 1.49 3.86 1.49 0.32 0 0.63-0.04 0.9-0.12 2.8-0.86 6.37-2.86 5.38-11.95 -0.44-2.02-1.27-4.97-2.72-7.62 -1.42-2.6-3.43-5.79-3.86-9.36 -0.35-2.96 0.18-5.66 1.65-6.88 0.47-0.39 0.84-0.56 1.13-0.56 0.67 0 0.95 0.91 1.08 2.26 0.12 1.18 1.56 3.39 3.05 3.9 0.81 0.28 1.73 0.52 2.74 0.52 2.45 0 5.42-1.4 8.64-7.02 0.83-1.9 1.89-4.77 2.28-7.76 0.38-2.94 0.63-6.71 2.38-9.84 1.46-2.6 3.48-4.47 5.38-4.6 0.11-0.01 0.21-0.01 0.3-0.01 1.67 0 1.41 1.09 0.49 2.68 -0.6 1.02-0.73 3.66 0.17 4.95 1.09 1.55 2.73 3.26 6 3.26 1.79 0 4.07-0.51 7.02-1.84 1.79-1.05 4.34-2.75 6.41-4.94 2.04-2.15 4.45-5.05 7.71-6.56 1.62-0.75 3.24-1.16 4.63-1.16 0.94 0 1.78 0.19 2.43 0.6 1.69 1.06 0.85 1.84-0.93 2.62 -1.09 0.48-2.74 2.53-2.77 4.11 -0.05 2.93 0.75 6.94 9.7 8.8 0.95 0.09 2.12 0.17 3.4 0.17 1.48 0 3.1-0.1 4.69-0.4 2.17-0.41 4.75-1.02 7.39-1.02 0.9 0 1.81 0.07 2.71 0.25 2.93 0.58 5.33 1.92 6.04 3.69 0.53 1.32 0.1 1.77-0.87 1.77 -0.39 0-0.88-0.07-1.42-0.19 -0.16-0.04-0.35-0.05-0.56-0.05 -1.28 0-3.28 0.66-4.1 1.74 -1.76 2.34-3.47 6.05 2.67 12.82 1.55 1.37 3.95 3.28 6.68 4.57 2.68 1.27 6.18 2.67 8.62 5.31C403.5 361.99 404.65 364.49 404.18 366.34z"/>
    <path class="stroke" fill="#111111" d="M347.77 360.99c-5.64 0-10.23 4.59-10.23 10.23 0 5.64 4.59 10.23 10.23 10.23 5.64 0 10.23-4.59 10.23-10.23C358 365.58 353.41 360.99 347.77 360.99z"/>
    <path class="stroke" fill="#111111" d="M345.34 357.86v-14.78c-5.98 0.51-11.43 2.88-15.76 6.53l10.46 10.46C341.6 358.97 343.4 358.21 345.34 357.86z"/>
    <path class="stroke" fill="#111111" d="M334.41 368.79c0.35-1.94 1.11-3.74 2.2-5.31l-10.45-10.46c-3.65 4.34-6.02 9.78-6.53 15.76H334.41z"/>
    <path class="stroke" fill="#111111" d="M350.19 343.08v14.78c1.94 0.35 3.75 1.11 5.31 2.2l10.46-10.46C361.62 345.95 356.17 343.58 350.19 343.08z"/>
    <path class="stroke" fill="#111111" d="M336.6 378.96c-1.08-1.56-1.85-3.36-2.2-5.31H319.62c0.51 5.98 2.88 11.43 6.53 15.76L336.6 378.96z"/>
    <path class="stroke" fill="#111111" d="M375.91 368.79c-0.51-5.98-2.88-11.43-6.53-15.76l-10.45 10.46c1.08 1.56 1.85 3.36 2.2 5.31H375.91z"/>
    <path class="stroke" fill="#111111" d="M361.13 373.65c-0.35 1.94-1.11 3.74-2.2 5.31l10.46 10.46c3.65-4.34 6.02-9.78 6.53-15.76L361.13 373.65z"/>
    <path class="stroke" fill="#111111" d="M345.34 384.58c-1.94-0.35-3.74-1.11-5.31-2.2l-10.45 10.46c4.33 3.65 9.78 6.02 15.76 6.53V384.58z"/>
    <path class="stroke" fill="#111111" d="M350.19 399.37c5.98-0.51 11.43-2.88 15.76-6.53l-10.46-10.45c-1.56 1.08-3.36 1.85-5.31 2.2V399.37z"/>
    <path class="stroke" fill="#555A64" d="M452.65 306.35c0.92-1.57 1.46-2.74 1.61-3.52 0.9-4.06 0.25-7.64-1.96-10.73 -0.95-1.55-2.13-2.94-3.54-4.18 -1.41-1.23-3.13-2.08-5.16-2.52 -0.47-0.15-0.74-0.26-0.82-0.34 -0.08-0.08-0.35-0.19-0.82-0.34 -4.53-1.05-8.33-0.01-11.42 3.13l-3.24 3.3c-1.08 1.1-2.24 1.65-3.49 1.67l-5.02 0.16 -5.49 0.16 -10.97 0.33 -0.56 0.02L399.91 293c-0.53 0.18-1.07 0.37-1.63 0.58l-6.93 0.21 -8.17 0.54c-0.66 0.04-1.31 0.07-1.96 0.1 -0.45-0.04-0.89-0.08-1.35-0.13 -0.74-0.25-1.23-0.25-1.47 0 -0.3 0.08-0.6 0.13-0.91 0.18 -0.83-0.01-1.66-0.03-2.48-0.07l-0.06 0.13c-0.89-0.07-1.76-0.2-2.61-0.41 -1.35-0.37-2.76-0.43-4.23-0.18h-3.31c-2.08-0.37-4.29-0.24-6.62 0.37 -0.49 0-1.01 0.03-1.56 0.09s-1.07 0.09-1.56 0.09h13.81 -5.7c-1.96 0.25-3.89 0.28-5.79 0.09 -1.9-0.18-3.83-0.28-5.79-0.28 -0.37 0.12-0.92 0.06-1.65-0.18 -1.23 0-2.39-0.06-3.49-0.18 -1.1-0.12-2.27-0.06-3.49 0.19 -1.47 0.49-2.7 0.49-3.68 0 -0.37-0.12-1.16-0.18-2.39-0.18 -0.49 0.25-1.35 0.25-2.57 0 -1.23 0-2.39-0.06-3.49-0.18 -1.1-0.12-2.27-0.06-3.49 0.18h-1.1 -6.07 -11.4 -15.08l-16.92-0.18 0-14.16 -0.09-12.05 -0.18-8.64c-0.06-2.27-0.03-3.59 0.09-3.95l0.09 9.67 0.28-9.65c0-1.72 0.09-3.34 0.28-4.87 0.18-1.53 0.22-3.1 0.09-4.69 0-5.88 0.18 1.42 0.55-4.1 0.12-2.08 0.12-4.17 0-6.25 -0.12-1.35-0.18-2.7-0.18-4.05s0.12-2.76 0.37-4.23c0.25-0.73 0.37-1.84 0.37-3.31v-3.49 -3.49l0.09-3.77c0.06-1.29 0.15-2.48 0.28-3.59l0.28-5.24 0.09-4.32c0.12-0.86 0.19-1.53 0.19-2.02v-1.47c0-0.98-0.03 4.57-0.09 3.65 -0.06-0.92 0.03-1.87 0.28-2.85l0.27-3.03c0.06-0.92 0.09-1.99 0.09-3.22 0.12-0.37 0.22-0.7 0.28-1.01l-0.06-0.02c0.69-3.07 2.34-9.23 2.55-11.39 0.39-1.75 1.14-3.07 2.23-3.98 2.41-1.78 4.06-4.36 4.94-7.74 0.39-1.75 0.5-3.42 0.32-5 -0.18-1.58-0.81-3.15-1.89-4.71 -1.38-1.92-3.43-3.29-6.14-4.12 -0.98-0.21-1.95-0.33-2.9-0.36 -0.95-0.04-1.88 0.13-2.81 0.48 -0.93 0.36-1.85 0.66-2.77 0.91 -0.92 0.25-1.84 0.55-2.77 0.91 -0.69 0.16-1.15 0.34-1.39 0.54 -1.09 0.9-2.08 1.87-2.96 2.9 -0.88 1.03-1.56 2.25-2.03 3.66 -1.08 1.91-1.2 4.05-0.37 6.42 0.83 2.37 1.98 4.08 3.44 5.11 0.32 0.14 0.66 0.37 1.02 0.69 0.36 0.31 0.7 0.54 1.02 0.69 1.47 1.04 1.95 2.37 1.46 4 0.08 0.34-0.02 0.84-0.31 1.48 -0.25 1.43-0.55 2.8-0.9 4.11 -0.12 0.45-0.21 0.9-0.29 1.37 -0.07 0.39-0.12 0.78-0.17 1.18 -0.08 0.23-0.15 0.44-0.15 0.59 0 0.28 0.04 0.42 0.07 0.5 0 0.06-0.01 0.12-0.01 0.18 -0.02 0.02-0.03 0.03-0.06 0.06l0.18 7.54c0 2.45-0.12-1.6-0.37 0.85l-0.37 4.6 -0.37 4.6 -0.37 4.78c-0.12 1.59-0.12 3.19 0 4.78 0.12 0.61 0.06 1.53-0.18 2.76l-0.18 8.83c-0.12 2.94-0.12 5.82 0 8.64v-3.81l-0.09 5.61 -0.09 5.61c0.25 3.68 0.31 7.36 0.19 11.03l-0.37 10.85v0.74c-0.24 1.96-0.4 3.89-0.46 5.79l-0.09-13.71v36.04h-15.08l-13.24 0 -9.93 0c-2.7 0-4.47 0.06-5.33 0.19 -0.24 0-0.46-0.03-0.64-0.09 -0.18-0.06-0.4-0.09-0.64-0.09 -0.73 0-1.47-0.06-2.2-0.18 -0.74-0.12-1.47-0.18-2.21-0.19 -0.98-0.24-1.84-0.24-2.58 0 -0.73 0.25-1.53 0.43-2.39 0.55 -2.57-0.12-5.09-0.12-7.54 0 -2.45 0.12-4.9-0.06-7.36-0.55 -0.37-0.12-0.64-0.15-0.83-0.09 -0.18 0.06-0.52 0.09-1.01 0.09 -0.49 0-1.01 0.03-1.56 0.09 -0.55 0.06-1.13 0.03-1.75-0.09 -1.84-0.12-3.43 0-4.78 0.37 -0.86 0.12-1.72 0.12-2.57 0 -1.35-0.12-2.67-0.15-3.95-0.09 -1.29 0.06-2.67-0.03-4.14-0.28 -0.37-0.12-0.64-0.15-0.83-0.09 -0.18 0.06-0.46 0.03-0.83-0.09h-2.76c-0.86 0-1.78-0.12-2.76-0.37 -3.8-0.37-7.48-0.55-11.04-0.55h-10.85c-2.7 0-5.39-0.12-8.09-0.37s-5.39-0.37-8.09-0.37c-1.96-0.24-3.49-0.92-4.6-2.02 -2.21-2.45-5.21-3.98-9.01-4.6 -1.96-0.24-3.8-0.18-5.52 0.18 -1.72 0.37-3.37 1.23-4.96 2.58 -1.96 1.72-3.25 4.11-3.86 7.17 -0.12 1.1-0.15 2.18-0.09 3.22 0.06 1.04 0.34 2.05 0.83 3.04 0.49 0.98 0.92 1.96 1.29 2.94 0.37 0.98 0.8 1.96 1.29 2.94 0.25 0.73 0.49 1.23 0.74 1.47 1.1 1.1 2.27 2.09 3.5 2.94 1.23 0.86 2.64 1.47 4.23 1.84 2.21 0.98 4.57 0.89 7.08-0.28 2.51-1.16 4.26-2.6 5.24-4.32 0.12-0.37 0.34-0.77 0.64-1.19 0.31-0.43 0.52-0.83 0.64-1.19 0.98-1.72 2.39-2.39 4.23-2.02 0.37-0.12 0.92-0.06 1.66 0.19 1.6 0.12 3.13 0.31 4.6 0.55 1.47 0.25 3 0.31 4.6 0.18 1.96 0 3.86 0.06 5.7 0.19 1.84 0.12 3.74 0.18 5.7 0.18l10.48 0c3.56 0 7.11 0.18 10.67 0.55 1.47 0.25 2.97 0.34 4.51 0.28 1.53-0.06 2.97-0.03 4.32 0.09 4.54-0.12 9.07-0.12 13.61 0l13.79 0.19 11.95-0.18h12.14l10.02-0.09 19.59-0.09v12.87l-0.09 10.94 -0.09 7.63 0 2.94c-0.49 1.96-0.77 3.95-0.83 5.98l-0.09 5.98c0 1.47 0.06 2.94 0.19 4.41 0.12 1.47 0.19 2.94 0.19 4.42l0.46 4.87c0.19 1.66 0.28 3.34 0.28 5.06 -0.12 5.27 0.06 10.48 0.55 15.63l0.27 8.37 0.09 8.18v16.18l-0.09-7.83 -0.09 11.68c0.12 0.86 0.12 1.72 0 2.57 0 0.98-0.31 1.53-0.92 1.66 -0.86 0.37-1.53 0.92-2.02 1.65l-1.47 2.21c-1.84 2.58-2.57 5.52-2.21 8.83 0.24 1.96 0.83 3.77 1.75 5.43 0.92 1.66 2.36 2.97 4.32 3.95 1.23 0.74 2.15 1.16 2.76 1.29 3.19 0.74 6.01 0.25 8.46-1.47 1.23-0.73 2.33-1.65 3.31-2.76 0.98-1.1 1.65-2.45 2.02-4.05 0.12-0.37 0.21-0.58 0.28-0.64 0.06-0.06 0.15-0.28 0.28-0.64 0.86-3.55 0.06-6.56-2.39-9.01l-2.57-2.57c-0.86-0.86-1.29-1.78-1.29-2.76l-0.09-3.95 -0.09-4.32 -0.18-8.64 -0.18 10.86 -0.37-6.44c-0.12-2.21-0.12-4.35 0-6.44 -0.12-1.59-0.18-3.13-0.18-4.6 0-1.47-0.06-3-0.18-4.6 -0.37-4.29-0.31-8.4 0.19-12.32l0.27-5.24c0.06-1.66-0.03-3.34-0.27-5.06l-0.28-2.85c-0.06-0.8-0.03-1.62 0.09-2.48 0-1.96 0.06-3.86 0.19-5.7 0.12-1.84 0.18-3.74 0.18-5.7v-7.35l-0.18-7.54v-38.62h19.86 18.39l14.25-0.09 7.27-0.09h9.93l9.75-0.18 5.79-0.09c1.66-0.06 3.31-0.06 4.97 0l-14.26 0.09c1.84 0 3.98 0.12 6.44 0.37l9.84 0.46c3.25 0.19 6.47 0.15 9.65-0.09h3.13c0.86 0 1.72-0.06 2.58-0.18 1.35 0.12 2.76 0.18 4.23 0.18h4.41l6.64 0.02 5.61 0.28 14.26-0.79c1.09-0.17 2.18-0.17 3.27-0.03 1.25-0.01 1.95 0.37 2.11 1.15 0.48 1.08 1.19 1.94 2.13 2.55l2.82 1.85c3.29 2.31 7.04 3.21 11.23 2.71 2.49-0.33 4.78-1.09 6.87-2.27C449.77 310.7 451.42 308.85 452.65 306.35z"/>
</svg>
