<?xml version="1.0" encoding="utf-8"?>
<!-- Generator: Adobe Illustrator 15.1.0, SVG Export Plug-In . SVG Version: 6.00 Build 0)  -->
<!DOCTYPE svg PUBLIC "-//W3C//DTD SVG 1.1//EN" "http://www.w3.org/Graphics/SVG/1.1/DTD/svg11.dtd">
<svg version="1.1"
	 id="Layer_1" xmlns:cc="http://creativecommons.org/ns#" xmlns:dc="http://purl.org/dc/elements/1.1/" xmlns:rdf="http://www.w3.org/1999/02/22-rdf-syntax-ns#"
	 xmlns="http://www.w3.org/2000/svg" xmlns:xlink="http://www.w3.org/1999/xlink" x="0px" y="0px" width="209.078px"
	 height="57.182px" viewBox="90.922 21.897 209.078 57.182" enable-background="new 90.922 21.897 209.078 57.182"
	 xml:space="preserve">
<g transform="matrix(1.25,0,0,-1.25,-5.9169448,86.523103)">
	<g transform="matrix(1.6613986,0,0,1.6613986,-4.1890052,-4.9972634)">
		<g>
			<defs>
				<rect id="SVGID_1_" x="-84.525" y="-27.457" width="326.05" height="105.914"/>
			</defs>
			<clipPath id="SVGID_2_">
				<use xlink:href="#SVGID_1_"  overflow="visible"/>
			</clipPath>
			<g clip-path="url(#SVGID_2_)">
				<g transform="translate(117.3312,26.8632)">
					<path fill="#BF9759" d="M0,0c-0.424-2.784-2.55-2.784-4.606-2.784h-1.17l0.821,5.198c0.049,0.314,0.32,0.545,0.638,0.545h0.537
						c1.4,0,2.722,0,3.404-0.797C0.031,1.685,0.154,0.977,0,0 M-0.895,7.264h-7.756c-0.531,0-0.982-0.386-1.066-0.91l-3.136-19.888
						c-0.062-0.392,0.242-0.747,0.638-0.747h3.98c0.371,0,0.687,0.27,0.745,0.636l0.89,5.639c0.082,0.524,0.534,0.91,1.064,0.91
						h2.454c5.109,0,8.058,2.472,8.828,7.373c0.347,2.142,0.014,3.826-0.989,5.005C3.655,6.578,1.7,7.264-0.895,7.264"/>
				</g>
				<g transform="translate(62.0115,26.8632)">
					<path fill="#BF9759" d="M0,0c-0.424-2.784-2.55-2.784-4.607-2.784h-1.17l0.821,5.198c0.049,0.314,0.32,0.545,0.638,0.545h0.537
						c1.4,0,2.722,0,3.404-0.797C0.031,1.685,0.154,0.977,0,0 M-0.895,7.264h-7.756c-0.531,0-0.982-0.386-1.065-0.91l-3.136-19.888
						c-0.062-0.392,0.241-0.747,0.638-0.747h3.704c0.53,0,0.981,0.386,1.064,0.909l0.847,5.366c0.082,0.524,0.534,0.91,1.064,0.91
						h2.454c5.109,0,8.058,2.472,8.828,7.373c0.347,2.142,0.014,3.826-0.989,5.005C3.655,6.578,1.7,7.264-0.895,7.264"/>
				</g>
				<g transform="translate(79.1228,19.7234)">
					<path fill="#BF9759" d="M0,0c-0.359-2.122-2.043-3.547-4.192-3.547c-1.077,0-1.94,0.347-2.494,1.003
						c-0.549,0.65-0.756,1.577-0.582,2.608c0.334,2.104,2.046,3.574,4.162,3.574c1.055,0,1.911-0.35,2.476-1.012
						C-0.061,1.959,0.163,1.027,0,0 M5.176,7.229H1.462c-0.318,0-0.589-0.231-0.639-0.546L0.66,5.645L0.401,6.021
						c-0.805,1.167-2.598,1.558-4.388,1.558c-4.103,0-7.608-3.11-8.29-7.471c-0.355-2.176,0.149-4.255,1.383-5.706
						c1.133-1.333,2.75-1.888,4.677-1.888c3.308,0,5.142,2.124,5.142,2.124l-0.166-1.032C-1.303-6.786-1-7.141-0.602-7.141h3.344
						c0.531,0,0.982,0.385,1.065,0.909L5.815,6.482C5.877,6.874,5.573,7.229,5.176,7.229"/>
				</g>
				<g transform="translate(134.4426,19.7234)">
					<path fill="#BF9759" d="M0,0c-0.359-2.122-2.043-3.547-4.192-3.547c-1.077,0-1.94,0.347-2.494,1.003
						c-0.55,0.65-0.756,1.577-0.582,2.608c0.334,2.104,2.046,3.574,4.162,3.574c1.055,0,1.911-0.35,2.476-1.012
						C-0.061,1.959,0.163,1.027,0,0 M5.176,7.229H1.462c-0.318,0-0.589-0.231-0.639-0.546L0.66,5.645L0.4,6.021
						c-0.804,1.167-2.597,1.558-4.387,1.558c-4.102,0-7.607-3.11-8.289-7.471c-0.355-2.176,0.149-4.255,1.382-5.706
						c1.133-1.333,2.75-1.888,4.677-1.888c3.308,0,5.143,2.124,5.143,2.124l-0.166-1.032C-1.303-6.786-1-7.141-0.602-7.141h3.344
						c0.531,0,0.982,0.385,1.066,0.909L5.815,6.482C5.877,6.874,5.573,7.229,5.176,7.229"/>
				</g>
				<g transform="translate(104.0795,26.9523)">
					<path fill="#BF9759" d="M0,0h-3.733C-4.09,0-4.424-0.177-4.624-0.473l-5.15-7.584l-2.182,7.288
						C-12.093-0.313-12.513,0-12.989,0h-3.669c-0.443,0-0.755-0.436-0.612-0.855l4.11-12.066l-3.866-5.455
						c-0.303-0.428,0.003-1.02,0.528-1.02h3.729c0.353,0,0.684,0.173,0.886,0.463L0.531-1.015C0.828-0.586,0.522,0,0,0"/>
				</g>
				<g transform="translate(143.996,33.5807)">
					<path fill="#BF9759" d="M0,0l-3.183-20.252c-0.062-0.392,0.241-0.747,0.639-0.747h3.202c0.53,0,0.982,0.386,1.064,0.91
						L4.86-0.201c0.062,0.392-0.241,0.747-0.639,0.747H0.639C0.32,0.546,0.049,0.315,0,0"/>
				</g>
			</g>
		</g>
	</g>
</g>
</svg>
