<?xml version="1.0" encoding="utf-8"?>
<!-- Generator: Adobe Illustrator 15.1.0, SVG Export Plug-In . SVG Version: 6.00 Build 0)  -->
<!DOCTYPE svg PUBLIC "-//W3C//DTD SVG 1.1//EN" "http://www.w3.org/Graphics/SVG/1.1/DTD/svg11.dtd">
<svg version="1.1" id="Layer_1" xmlns:sketch="http://www.bohemiancoding.com/sketch/ns"
	 xmlns="http://www.w3.org/2000/svg" xmlns:xlink="http://www.w3.org/1999/xlink" x="0px" y="0px" width="50px" height="50px"
	 viewBox="0 0 50 50" enable-background="new 0 0 50 50" xml:space="preserve">
<title>Twitter</title>
<description>Created with Sketch (http://www.bohemiancoding.com/sketch)</description>
<g id="Page-1" sketch:type="MSPage">
	<g id="Twitter" sketch:type="MSArtboardGroup">
		<path fill="#BF9759" d="M25,3C12.85,3,3,12.85,3,25s9.85,22,22,22s22-9.85,22-22S37.15,3,25,3z M35.921,18.055
			c-0.095,0.168-0.589,0.755-1.112,1.292c-0.891,0.922-0.938,1.023-0.938,1.794c0,1.191-0.54,3.673-1.081,5.032
			c-1.001,2.55-3.146,5.183-5.293,6.507c-3.021,1.862-7.042,2.332-10.428,1.242C15.939,33.553,14,32.613,14,32.445
			c0-0.051,0.588-0.117,1.304-0.135c1.494-0.033,2.988-0.469,4.26-1.24l0.858-0.537l-0.985-0.352
			c-1.399-0.504-2.655-1.661-2.973-2.751c-0.095-0.353-0.063-0.369,0.827-0.369l0.922-0.017l-0.779-0.386
			c-0.922-0.486-1.765-1.308-2.178-2.147c-0.302-0.604-0.684-2.13-0.572-2.247c0.032-0.05,0.366,0.05,0.747,0.184
			c1.097,0.419,1.24,0.319,0.604-0.386c-1.192-1.274-1.558-3.169-0.985-4.964l0.27-0.805l1.049,1.09
			c2.146,2.197,4.673,3.505,7.566,3.891l0.795,0.101l-0.048-0.822c0,0-0.002-0.031-0.005-0.079c0-0.007-0.001-0.014-0.001-0.021
			c-0.007-0.111-0.02-0.296-0.031-0.466c-0.002-0.029-0.004-0.057-0.005-0.083c-0.005-0.072-0.009-0.136-0.013-0.188
			c-0.01-0.157-0.008-0.122,0,0c0.003,0.045,0.007,0.106,0.013,0.188c0.002,0.027,0.003,0.054,0.005,0.083
			c0.008,0.12,0.019,0.275,0.031,0.466c0,0.007,0.001,0.014,0.001,0.021c0.002,0.028,0.003,0.049,0.005,0.079
			c-0.143-2.13,1.113-4.075,3.1-4.83c0.731-0.269,1.971-0.302,2.782-0.067c0.317,0.101,0.922,0.436,1.351,0.738l0.778,0.553
			l0.859-0.285c0.477-0.151,1.112-0.402,1.398-0.57c0.271-0.151,0.509-0.235,0.509-0.185c0,0.285-0.589,1.258-1.081,1.794
			c-0.668,0.755-0.477,0.822,0.875,0.319C36.064,17.737,36.08,17.737,35.921,18.055z"/>
	</g>
</g>
</svg>
