<?xml version="1.0" encoding="utf-8"?>
<!-- Generator: Adobe Illustrator 15.1.0, SVG Export Plug-In . SVG Version: 6.00 Build 0)  -->
<!DOCTYPE svg PUBLIC "-//W3C//DTD SVG 1.1//EN" "http://www.w3.org/Graphics/SVG/1.1/DTD/svg11.dtd">
<svg version="1.1" id="Layer_1" xmlns:sketch="http://www.bohemiancoding.com/sketch/ns"
	 xmlns="http://www.w3.org/2000/svg" xmlns:xlink="http://www.w3.org/1999/xlink" x="0px" y="0px" width="50px" height="50px"
	 viewBox="0 0 50 50" enable-background="new 0 0 50 50" xml:space="preserve">
<title>YouTube</title>
<description>Created with Sketch (http://www.bohemiancoding.com/sketch)</description>
<path fill="#BF9759" d="M25,3C12.85,3,3,12.85,3,25s9.85,22,22,22s22-9.85,22-22S37.15,3,25,3z M36.769,30.766
	c-0.299,1.297-1.36,2.254-2.637,2.396c-3.024,0.338-6.085,0.34-9.133,0.338c-3.048,0.002-6.109,0-9.133-0.338
	c-1.277-0.143-2.337-1.1-2.636-2.396c-0.425-1.848-0.425-3.863-0.425-5.765c0-1.902,0.005-3.918,0.43-5.766
	c0.298-1.297,1.359-2.254,2.636-2.396c3.024-0.338,6.085-0.339,9.133-0.338c3.047-0.001,6.109,0,9.133,0.338
	c1.277,0.143,2.338,1.1,2.637,2.396c0.424,1.848,0.422,3.864,0.422,5.766C37.195,26.902,37.193,28.918,36.769,30.766z"/>
<polygon fill="#BF9759" points="22.805,20.5 29.555,24.397 22.805,28.295 "/>
</svg>
